<svg xmlns="http://www.w3.org/2000/svg" id="libre-folder-featured" viewBox="0 0 14 14"><path d="M 2.6152344 1.9238281 C 2.1729297 1.9238281 1.7938698 2.0811242 1.4765625 2.3984375 C 1.1592545 2.7157442 1 3.0967558 1 3.5390625 L 1 10.460938 C 1 10.903244 1.1592545 11.284256 1.4765625 11.601562 C 1.7938698 11.918869 2.1729297 12.076172 2.6152344 12.076172 L 11.384766 12.076172 C 11.827072 12.076172 12.206131 11.918869 12.523438 11.601562 C 12.840744 11.284256 13 10.903244 13 10.460938 L 13 5.3847656 C 13 4.942459 12.840744 4.5634004 12.523438 4.2460938 C 12.206131 3.9287871 11.827072 3.7695312 11.384766 3.7695312 L 6.5390625 3.7695312 L 6.5390625 3.5390625 C 6.5390625 3.0967558 6.3798067 2.7157442 6.0625 2.3984375 C 5.7451933 2.0811242 5.3661348 1.9238281 4.9238281 1.9238281 L 2.6152344 1.9238281 z M 3.9511719 4.7519531 L 10.201172 4.7519531 C 10.373047 4.7519531 10.520183 4.8131511 10.642578 4.9355469 C 10.764974 5.0579427 10.826172 5.2050781 10.826172 5.3769531 L 10.826172 10.126953 C 10.826172 10.298828 10.764974 10.445963 10.642578 10.568359 C 10.520183 10.690755 10.373047 10.751953 10.201172 10.751953 L 3.9511719 10.751953 C 3.7792965 10.751953 3.632161 10.690755 3.5097656 10.568359 C 3.3873696 10.445963 3.3261719 10.298828 3.3261719 10.126953 L 3.3261719 5.3769531 C 3.3261719 5.2050781 3.3873696 5.0579427 3.5097656 4.9355469 C 3.632161 4.8131511 3.7792965 4.7519531 3.9511719 4.7519531 z M 3.9511719 5.2519531 C 3.9173185 5.2519531 3.8880213 5.2643125 3.8632812 5.2890625 C 3.8385413 5.3137918 3.8261719 5.3430991 3.8261719 5.3769531 L 3.8261719 10.126953 C 3.8261719 10.160826 3.8385413 10.190124 3.8632812 10.214844 C 3.8880212 10.239584 3.9173185 10.251953 3.9511719 10.251953 L 10.201172 10.251953 C 10.235005 10.251953 10.264302 10.23959 10.289062 10.214844 C 10.313803 10.190117 10.326172 10.160813 10.326172 10.126953 L 10.326172 5.3769531 C 10.326172 5.3431198 10.313809 5.3138205 10.289062 5.2890625 C 10.264336 5.2643205 10.235032 5.2519531 10.201172 5.2519531 L 3.9511719 5.2519531 z M 5.0761719 5.7519531 C 5.2845052 5.7519531 5.4615885 5.8248698 5.6074219 5.9707031 C 5.7532553 6.1165365 5.8261719 6.2936198 5.8261719 6.5019531 C 5.8261719 6.7102865 5.7532553 6.8873698 5.6074219 7.0332031 C 5.4615885 7.1790365 5.2845052 7.2519531 5.0761719 7.2519531 C 4.8678385 7.2519531 4.6907552 7.1790365 4.5449219 7.0332031 C 4.3990885 6.8873698 4.3261719 6.7102865 4.3261719 6.5019531 C 4.3261719 6.2936198 4.3990885 6.1165365 4.5449219 5.9707031 C 4.6907552 5.8248698 4.8678385 5.7519531 5.0761719 5.7519531 z M 8.2011719 6.3769531 L 9.8261719 8.0019531 L 9.8261719 9.7519531 L 4.3261719 9.7519531 L 4.3261719 9.0019531 L 5.5761719 7.7519531 L 6.2011719 8.3769531 L 8.2011719 6.3769531 z "/></svg>