<svg xmlns="http://www.w3.org/2000/svg" id="libre-folder-archive" viewBox="0 0 14 14"><path d="M 2.6152344 1.9238281 C 2.1729297 1.9238281 1.7938698 2.0811242 1.4765625 2.3984375 C 1.1592545 2.7157442 1 3.0967558 1 3.5390625 L 1 10.460938 C 1 10.903244 1.1592545 11.284256 1.4765625 11.601562 C 1.7938698 11.918869 2.1729297 12.076172 2.6152344 12.076172 L 11.384766 12.076172 C 11.827072 12.076172 12.206131 11.918869 12.523438 11.601562 C 12.840744 11.284256 13 10.903244 13 10.460938 L 13 5.3847656 C 13 4.942459 12.840744 4.5634004 12.523438 4.2460938 C 12.206131 3.9287871 11.827072 3.7695312 11.384766 3.7695312 L 6.5390625 3.7695312 L 6.5390625 3.5390625 C 6.5390625 3.0967558 6.3798067 2.7157442 6.0625 2.3984375 C 5.7451933 2.0811242 5.3661348 1.9238281 4.9238281 1.9238281 L 2.6152344 1.9238281 z M 4.4980469 4.7832031 L 6.7480469 4.7832031 C 6.8511719 4.7832031 6.9954454 4.8431006 7.0683594 4.9160156 L 9.0527344 6.9003906 C 9.1256484 6.9733056 9.1855469 7.1175781 9.1855469 7.2207031 L 9.1855469 10.595703 C 9.1855469 10.698823 9.1011719 10.783203 8.9980469 10.783203 L 4.4980469 10.783203 C 4.394922 10.783203 4.3105469 10.698828 4.3105469 10.595703 L 4.3105469 4.9707031 C 4.3105469 4.8675781 4.394922 4.7832031 4.4980469 4.7832031 z M 7.8730469 4.7832031 L 8.9980469 4.7832031 C 9.1011719 4.7832031 9.1855469 4.8675781 9.1855469 4.9707031 L 9.1855469 6.0957031 C 9.1855469 6.1988281 9.1256604 6.2233156 9.0527344 6.1503906 L 7.8183594 4.9160156 C 7.7454454 4.8431006 7.7699219 4.7832031 7.8730469 4.7832031 z M 4.6855469 5.1582031 L 4.6855469 10.408203 L 8.8105469 10.408203 L 8.8105469 7.2265625 C 8.8077369 7.2094725 8.7952462 7.1761594 8.7851562 7.1621094 L 6.8066406 5.1835938 C 6.7925656 5.1734937 6.7592725 5.1612031 6.7421875 5.1582031 L 4.6855469 5.1582031 z M 6.2734375 5.6699219 L 6.703125 5.6699219 L 6.703125 6.0976562 L 7.1308594 6.0976562 L 7.1308594 6.5273438 L 6.703125 6.5273438 L 6.703125 6.9550781 L 7.1308594 6.9550781 L 7.1308594 7.3847656 L 6.703125 7.3847656 L 6.703125 7.8125 L 6.9667969 7.8125 C 7.0159029 7.8125 7.0597091 7.8264528 7.0976562 7.8554688 C 7.1356022 7.8844857 7.1623873 7.9238271 7.1757812 7.9707031 L 7.5332031 9.1386719 C 7.5510701 9.1989419 7.5605469 9.256696 7.5605469 9.3125 C 7.5605469 9.497768 7.4782362 9.6517865 7.3164062 9.7734375 C 7.1545762 9.8950895 6.950895 9.9550781 6.703125 9.9550781 C 6.4553583 9.9550781 6.2497206 9.8950955 6.0878906 9.7734375 C 5.9260606 9.6517865 5.8457031 9.497768 5.8457031 9.3125 C 5.8457031 9.2567 5.8551769 9.1989399 5.8730469 9.1386719 C 5.9199229 8.9980469 6.0544106 8.5558036 6.2753906 7.8125 L 6.2753906 7.3847656 L 6.703125 7.3847656 L 6.703125 6.9550781 L 6.2734375 6.9550781 L 6.2734375 6.5273438 L 6.703125 6.5273438 L 6.703125 6.0976562 L 6.2734375 6.0976562 L 6.2734375 5.6699219 z M 6.703125 9.0976562 C 6.5848216 9.0976562 6.484094 9.1196994 6.4003906 9.1621094 C 6.3166836 9.2045194 6.2734375 9.254461 6.2734375 9.3125 C 6.2734375 9.37054 6.3166846 9.4204806 6.4003906 9.4628906 C 6.4840936 9.5053006 6.5848216 9.5273437 6.703125 9.5273438 C 6.8214316 9.5273438 6.9221561 9.5053006 7.0058594 9.4628906 C 7.0895664 9.4204806 7.1308594 9.37054 7.1308594 9.3125 C 7.1308594 9.25446 7.0895654 9.2045204 7.0058594 9.1621094 C 6.9221564 9.1196994 6.8214316 9.0976562 6.703125 9.0976562 z "/></svg>