<svg xmlns="http://www.w3.org/2000/svg" id="libre-folder-orders" viewBox="0 0 14 14"><path d="M 2.6152344 1.9238281 C 2.1729297 1.9238281 1.7938698 2.0811242 1.4765625 2.3984375 C 1.1592545 2.7157442 1 3.0967558 1 3.5390625 L 1 10.460938 C 1 10.903244 1.1592545 11.284256 1.4765625 11.601562 C 1.7938698 11.918869 2.1729297 12.076172 2.6152344 12.076172 L 11.384766 12.076172 C 11.827072 12.076172 12.206131 11.918869 12.523438 11.601562 C 12.840744 11.284256 13 10.903244 13 10.460938 L 13 5.3847656 C 13 4.942459 12.840744 4.5634004 12.523438 4.2460938 C 12.206131 3.9287871 11.827072 3.7695312 11.384766 3.7695312 L 6.5390625 3.7695312 L 6.5390625 3.5390625 C 6.5390625 3.0967558 6.3798067 2.7157442 6.0625 2.3984375 C 5.7451933 2.0811242 5.3661348 1.9238281 4.9238281 1.9238281 L 2.6152344 1.9238281 z M 4.5625 4.7519531 A 0.18387661 0.18387661 0 0 1 4.5800781 4.7539062 L 9.3613281 4.7539062 A 0.18387661 0.18387661 0 0 1 9.5488281 4.9414062 L 9.5488281 10.564453 A 0.18387661 0.18387661 0 0 1 9.3613281 10.751953 L 4.5800781 10.751953 A 0.18387661 0.18387661 0 0 1 4.3925781 10.564453 L 4.3925781 4.9414062 A 0.18387661 0.18387661 0 0 1 4.5332031 4.7539062 A 0.18387661 0.18387661 0 0 1 4.5625 4.7519531 z M 4.7675781 5.1132812 L 4.7675781 10.376953 L 9.1738281 10.376953 L 9.1738281 5.1132812 L 4.7675781 5.1132812 z M 9.0332031 5.2226562 L 9.0332031 5.2695312 L 8.0644531 5.2851562 L 8.0644531 5.2382812 L 9.0332031 5.2226562 z M 9.0332031 5.3320312 L 9.0332031 5.3789062 L 8.0644531 5.3945312 L 8.0644531 5.3476562 L 9.0332031 5.3320312 z M 9.0332031 5.4257812 L 9.0332031 5.4726562 L 8.0644531 5.4882812 L 8.0644531 5.4414062 L 9.0332031 5.4257812 z M 9.0332031 5.5195312 L 9.0332031 5.5664062 L 8.0644531 5.5820312 L 8.0644531 5.5351562 L 9.0332031 5.5195312 z M 9.0332031 5.6132812 L 9.0332031 5.6601562 L 8.0644531 5.6757812 L 8.0644531 5.6289062 L 9.0332031 5.6132812 z M 6.0488281 5.6914062 L 6.0488281 5.7382812 L 5.0800781 5.7539062 L 5.0800781 5.7070312 L 6.0488281 5.6914062 z M 7.4863281 5.6914062 L 7.4863281 5.7382812 L 6.5332031 5.7539062 L 6.5332031 5.7070312 L 7.4863281 5.6914062 z M 6.0488281 5.8007812 L 6.0488281 5.8476562 L 5.0800781 5.8632812 L 5.0800781 5.8164062 L 6.0488281 5.8007812 z M 7.4863281 5.8007812 L 7.4863281 5.8476562 L 6.5332031 5.8632812 L 6.5332031 5.8164062 L 7.4863281 5.8007812 z M 6.0488281 5.8945312 L 6.0488281 5.9414062 L 5.0800781 5.9570312 L 5.0800781 5.9101562 L 6.0488281 5.8945312 z M 7.4863281 5.8945312 L 7.4863281 5.9414062 L 6.5332031 5.9570312 L 6.5332031 5.9101562 L 7.4863281 5.8945312 z M 6.0488281 5.9882812 L 6.0488281 6.0351562 L 5.0800781 6.0507812 L 5.0800781 6.0039062 L 6.0488281 5.9882812 z M 7.4863281 5.9882812 L 7.4863281 6.0351562 L 6.5332031 6.0507812 L 6.5332031 6.0039062 L 7.4863281 5.9882812 z M 6.0488281 6.0820312 L 6.0488281 6.1289062 L 5.0800781 6.1445312 L 5.0800781 6.0976562 L 6.0488281 6.0820312 z M 7.4863281 6.0820312 L 7.4863281 6.1289062 L 6.5332031 6.1445312 L 6.5332031 6.0976562 L 7.4863281 6.0820312 z M 5.0019531 6.5507812 L 5.0644531 6.5507812 L 8.8925781 6.5507812 L 8.9550781 6.5507812 L 8.9550781 6.6132812 L 8.9550781 9.1289062 L 8.9550781 9.1757812 L 8.8925781 9.1757812 L 5.0644531 9.1757812 L 5.0019531 9.1757812 L 5.0019531 9.1289062 L 5.0019531 6.6132812 L 5.0019531 6.5507812 z M 5.1113281 6.6601562 L 5.1113281 6.7851562 C 5.1186188 6.7852373 5.1227941 6.7853993 5.1425781 6.7851562 C 5.2019313 6.7844264 5.3275518 6.7861261 5.5644531 6.7851562 C 5.622561 6.7849183 5.8975932 6.7852882 5.9707031 6.7851562 C 5.9707183 6.7184579 5.9707013 6.7309567 5.9707031 6.6601562 L 5.1113281 6.6601562 z M 6.0175781 6.6601562 C 6.0175763 6.7309535 6.0175932 6.7184588 6.0175781 6.7851562 C 6.2164989 6.7848349 6.76675 6.7850249 7.0957031 6.7851562 C 7.0957183 6.7184579 7.0957013 6.7309567 7.0957031 6.6601562 L 6.0175781 6.6601562 z M 7.1425781 6.6601562 C 7.1425763 6.7309535 7.1425932 6.7184588 7.1425781 6.7851562 C 7.3710132 6.7852529 7.5745254 6.7850142 7.8769531 6.7851562 C 7.8769692 6.718585 7.8769496 6.7308625 7.8769531 6.6601562 L 7.1425781 6.6601562 z M 7.9238281 6.6601562 C 7.9238505 6.7308641 7.9256756 6.7185819 7.9257812 6.7851562 C 8.3112504 6.7853324 8.3244277 6.7851462 8.8457031 6.7851562 L 8.8457031 6.6601562 L 7.9238281 6.6601562 z M 5.1113281 6.8320312 L 5.1113281 7.0039062 C 5.117418 7.0039307 5.1170611 7.0040277 5.1269531 7.0039062 C 5.1863063 7.0031764 5.3119268 7.0048759 5.5488281 7.0039062 C 5.6091709 7.0036592 5.8941451 7.0025286 5.9707031 7.0019531 C 5.9707466 6.920565 5.9706767 6.9206508 5.9707031 6.8320312 C 5.8976016 6.8321632 5.6225443 6.8317933 5.5644531 6.8320312 C 5.32762 6.8330011 5.2016581 6.8313064 5.1425781 6.8320312 C 5.1228848 6.8322732 5.118649 6.8321119 5.1113281 6.8320312 z M 6.0175781 6.8320312 C 6.0175518 6.9206505 6.0176214 6.9205622 6.0175781 7.0019531 C 6.2181461 7.0004059 6.7646192 6.9984898 7.0957031 6.9960938 C 7.0957446 6.9172763 7.0956776 6.917595 7.0957031 6.8320312 C 6.7667376 6.8318999 6.2164787 6.8317099 6.0175781 6.8320312 z M 7.1425781 6.8320312 C 7.1425527 6.9175947 7.1426194 6.9172737 7.1425781 6.9960938 C 7.3724787 6.9944636 7.5728355 6.9934924 7.8769531 6.9921875 C 7.8769933 6.9153045 7.8769273 6.9153815 7.8769531 6.8320312 C 7.5745159 6.8318892 7.3710221 6.8321279 7.1425781 6.8320312 z M 7.9257812 6.8320312 C 7.9259534 6.915377 7.9254964 6.9153058 7.9257812 6.9921875 C 8.3133838 6.9906045 8.3219435 6.9883169 8.8457031 6.9882812 L 8.8457031 6.8320312 C 8.3244361 6.8320212 8.3112618 6.8322074 7.9257812 6.8320312 z M 5.1113281 7.0507812 L 5.1113281 7.2070312 C 5.1222803 7.2071043 5.1277401 7.2072136 5.1425781 7.2070312 C 5.2019313 7.2063015 5.3119268 7.2080011 5.5488281 7.2070312 C 5.6088876 7.2067853 5.8941466 7.2071643 5.9707031 7.2070312 C 5.9707538 7.1398437 5.9706598 7.1237619 5.9707031 7.0507812 C 5.8941536 7.0509145 5.6091535 7.0505342 5.5488281 7.0507812 C 5.3119951 7.0517509 5.1860331 7.0500564 5.1269531 7.0507812 C 5.1171065 7.0509022 5.1174786 7.050804 5.1113281 7.0507812 z M 6.0175781 7.0507812 C 6.017535 7.1237652 6.0176286 7.1398388 6.0175781 7.2070312 C 6.2181973 7.2067195 6.7646433 7.2068986 7.0957031 7.2070312 C 7.0957538 7.1398437 7.0956598 7.1237619 7.0957031 7.0507812 C 6.7646081 7.0506463 6.2181261 7.0504693 6.0175781 7.0507812 z M 7.1425781 7.0507812 C 7.142535 7.1237652 7.1426286 7.1398388 7.1425781 7.2070312 C 7.3724203 7.2071287 7.5739918 7.2068899 7.8769531 7.2070312 C 7.8770031 7.1400719 7.8769101 7.1235468 7.8769531 7.0507812 C 7.5728274 7.0506396 7.3724869 7.0508802 7.1425781 7.0507812 z M 7.9277344 7.0507812 C 7.9280476 7.123546 7.9273401 7.1400706 7.9277344 7.2070312 C 8.3132047 7.2072059 8.3278733 7.2070213 8.8457031 7.2070312 L 8.8457031 7.0507812 C 8.3230633 7.0507762 8.3147924 7.0509562 7.9277344 7.0507812 z M 5.1113281 7.2539062 L 5.1113281 7.4101562 C 5.1190031 7.4099363 5.1285271 7.4105207 5.1582031 7.4101562 C 5.2175563 7.4094265 5.3275518 7.4111259 5.5644531 7.4101562 C 5.6222882 7.4099194 5.897602 7.410288 5.9707031 7.4101562 C 5.9707557 7.3501452 5.9706512 7.3194021 5.9707031 7.2539062 C 5.894155 7.2540393 5.6088703 7.2536603 5.5488281 7.2539062 C 5.3119951 7.2548759 5.2016581 7.2531814 5.1425781 7.2539062 C 5.1278081 7.2540877 5.1223654 7.2539772 5.1113281 7.2539062 z M 6.0175781 7.2539062 C 6.0175265 7.3194074 6.0176305 7.3501392 6.0175781 7.4101562 C 6.2165327 7.4098351 6.7667531 7.4100272 7.0957031 7.4101562 C 7.0957557 7.3501452 7.0956512 7.3194021 7.0957031 7.2539062 C 6.7646309 7.2537736 6.2181779 7.2535945 6.0175781 7.2539062 z M 7.1425781 7.2539062 C 7.1425265 7.3194074 7.1426305 7.3501392 7.1425781 7.4101562 C 7.37097 7.4102514 7.5756486 7.4100146 7.8769531 7.4101562 C 7.8770047 7.3503685 7.8769021 7.3191728 7.8769531 7.2539062 C 7.5739824 7.2537649 7.3724291 7.2540037 7.1425781 7.2539062 z M 7.9277344 7.2539062 C 7.9281493 7.3191806 7.929216 7.3503605 7.9296875 7.4101562 C 8.3125135 7.4103311 8.3313814 7.4101415 8.8457031 7.4101562 L 8.8457031 7.2539062 C 8.3278816 7.2538963 8.313216 7.2540809 7.9277344 7.2539062 z M 5.5644531 7.4570312 C 5.32762 7.4580012 5.2172831 7.4719314 5.1582031 7.4726562 C 5.1286631 7.4730191 5.1184581 7.4724519 5.1113281 7.4726562 L 5.1113281 7.6445312 C 5.1190031 7.6443113 5.1285271 7.6292707 5.1582031 7.6289062 C 5.2175563 7.6281763 5.3431768 7.6298759 5.5800781 7.6289062 C 5.6359511 7.6286775 5.9009916 7.6290367 5.9707031 7.6289062 C 5.9707525 7.5709027 5.9706461 7.5212842 5.9707031 7.4570312 C 5.8976104 7.457163 5.6222715 7.4567944 5.5644531 7.4570312 z M 6.0175781 7.4570312 C 6.0175214 7.5212909 6.0176273 7.5708963 6.0175781 7.6289062 C 6.2148591 7.6285754 6.7688724 7.6287786 7.0957031 7.6289062 C 7.0957525 7.5709027 7.0956461 7.5212842 7.0957031 7.4570312 C 6.7667409 7.4569022 6.2165125 7.4567101 6.0175781 7.4570312 z M 7.1425781 7.4570312 C 7.1425214 7.5212909 7.1426273 7.5708963 7.1425781 7.6289062 C 7.3695532 7.6290006 7.5762093 7.6287638 7.8769531 7.6289062 C 7.8770015 7.5711118 7.8768973 7.5210438 7.8769531 7.4570312 C 7.575639 7.4568896 7.3709787 7.4571264 7.1425781 7.4570312 z M 7.9296875 7.4570312 C 7.9302208 7.5210521 7.9310697 7.571104 7.9316406 7.6289062 C 8.3133323 7.6290817 8.3302115 7.6288914 8.8457031 7.6289062 L 8.8457031 7.4570312 C 8.3313893 7.4570165 8.312525 7.4572061 7.9296875 7.4570312 z M 8.8457031 7.6757812 C 8.3302203 7.6758867 8.3133434 7.6780875 7.9316406 7.6796875 C 7.9322048 7.7344433 7.9330245 7.7984297 7.9335938 7.8476562 C 8.3168465 7.8478305 8.3288546 7.8476463 8.8457031 7.8476562 L 8.8457031 7.6757812 z M 7.8769531 7.6796875 C 7.5761984 7.6810176 7.3695628 7.681962 7.1425781 7.6835938 C 7.1425349 7.7371317 7.1426065 7.7994414 7.1425781 7.8476562 C 7.3710132 7.8477529 7.5745254 7.8475142 7.8769531 7.8476562 C 7.8769819 7.7984355 7.8769092 7.7344358 7.8769531 7.6796875 z M 7.0957031 7.6835938 C 6.7688587 7.6859899 6.2148388 7.6879566 6.0175781 7.6894531 C 6.0175368 7.7408912 6.0176054 7.8011633 6.0175781 7.8476562 C 6.2164988 7.8473349 6.76675 7.8475249 7.0957031 7.8476562 C 7.0957316 7.7994459 7.0956597 7.7371259 7.0957031 7.6835938 z M 5.9707031 7.6894531 C 5.9009999 7.6899668 5.6359351 7.6911775 5.5800781 7.6914062 C 5.343245 7.6923759 5.2172831 7.6906814 5.1582031 7.6914062 C 5.1286631 7.6917691 5.1184581 7.6912018 5.1113281 7.6914062 L 5.1113281 7.8476562 C 5.1230257 7.8477108 5.1359461 7.8479297 5.1582031 7.8476562 C 5.2175563 7.8469265 5.3275518 7.8486261 5.5644531 7.8476562 C 5.622561 7.8474183 5.8975932 7.8477882 5.9707031 7.8476562 C 5.9707306 7.8011677 5.9706616 7.7408856 5.9707031 7.6894531 z M 5.1582031 7.8945312 C 5.1360481 7.8948035 5.122981 7.9019129 5.1113281 7.90625 L 5.1113281 8.0664062 C 5.1190031 8.0661862 5.1285271 8.0667707 5.1582031 8.0664062 C 5.2175564 8.0656773 5.3431768 8.051751 5.5800781 8.0507812 C 5.6359511 8.0505525 5.9009916 8.0509117 5.9707031 8.0507812 C 5.9707047 8.0107795 5.9706811 7.9390458 5.9707031 7.8945312 C 5.8976016 7.8946632 5.6225443 7.8942933 5.5644531 7.8945312 C 5.3276199 7.8955011 5.2172831 7.8938064 5.1582031 7.8945312 z M 6.0175781 7.8945312 C 6.0175562 7.9390496 6.0175797 8.0107779 6.0175781 8.0507812 C 6.2148591 8.0504504 6.7688724 8.0506536 7.0957031 8.0507812 C 7.0957047 8.0107795 7.0956811 7.9390458 7.0957031 7.8945312 C 6.7667377 7.8943999 6.2164786 7.8942099 6.0175781 7.8945312 z M 7.1425781 7.8945312 C 7.1425562 7.9390496 7.1425797 8.0107779 7.1425781 8.0507812 C 7.3695532 8.0508756 7.5762093 8.0506388 7.8769531 8.0507812 C 7.8769554 8.0108238 7.8769313 7.938935 7.8769531 7.8945312 C 7.5745159 7.8943892 7.3710221 7.8946279 7.1425781 7.8945312 z M 7.9335938 7.8945312 C 7.9341207 7.9389362 7.9330876 8.0108242 7.9335938 8.0507812 C 8.3147336 8.0509562 8.331313 8.0507665 8.8457031 8.0507812 L 8.8457031 7.8945312 C 8.328863 7.8945213 8.3168577 7.8947055 7.9335938 7.8945312 z M 8.8457031 8.0976562 C 8.3313217 8.0977615 8.3147446 8.099968 7.9335938 8.1015625 C 7.9340892 8.1401315 7.9350973 8.2233593 7.9355469 8.2578125 C 8.3161334 8.2562235 8.3324153 8.2540112 8.8457031 8.2539062 L 8.8457031 8.0976562 z M 7.8769531 8.1015625 C 7.5761984 8.1028926 7.3695628 8.103837 7.1425781 8.1054688 C 7.1425849 8.1439477 7.1425441 8.2274357 7.1425781 8.2617188 C 7.3695541 8.260087 7.576208 8.2591426 7.8769531 8.2578125 C 7.8769218 8.2233586 7.8769583 8.1401291 7.8769531 8.1015625 z M 7.0957031 8.1054688 C 6.7688587 8.1078649 6.2148388 8.1098316 6.0175781 8.1113281 C 6.0175858 8.1496454 6.0175429 8.2334478 6.0175781 8.2675781 C 6.2148598 8.2660816 6.7688709 8.2641149 7.0957031 8.2617188 C 7.0956689 8.2274333 7.0957099 8.143947 7.0957031 8.1054688 z M 5.9707031 8.1113281 C 5.9009999 8.1118418 5.6359351 8.1130525 5.5800781 8.1132812 C 5.343245 8.1142509 5.2172831 8.1125564 5.1582031 8.1132812 C 5.1286631 8.1136441 5.1184581 8.1130769 5.1113281 8.1132812 L 5.1113281 8.2695312 C 5.1190031 8.2693112 5.1285271 8.2698958 5.1582031 8.2695312 C 5.2175564 8.2688014 5.3431767 8.2705011 5.5800781 8.2695312 C 5.6359512 8.2693025 5.9009915 8.2680918 5.9707031 8.2675781 C 5.9706678 8.2334453 5.9707109 8.1496449 5.9707031 8.1113281 z M 5.1113281 8.3164062 L 5.1113281 8.4570312 C 5.1190031 8.4568113 5.1285271 8.4573957 5.1582031 8.4570312 C 5.2175563 8.4563014 5.3431767 8.458001 5.5800781 8.4570312 C 5.6359511 8.4568025 5.9009916 8.4571617 5.9707031 8.4570312 C 5.970635 8.4305912 5.9707436 8.3459928 5.9707031 8.3164062 C 5.901 8.3165367 5.635935 8.3161775 5.5800781 8.3164062 C 5.3432449 8.3173761 5.2172831 8.3156814 5.1582031 8.3164062 C 5.1286631 8.3167691 5.1184581 8.3162019 5.1113281 8.3164062 z M 6.0175781 8.3164062 C 6.0176185 8.3459895 6.0175103 8.4305978 6.0175781 8.4570312 C 6.2148591 8.4567004 6.7688724 8.4569036 7.0957031 8.4570312 C 7.095635 8.4305912 7.0957436 8.3459928 7.0957031 8.3164062 C 6.7688603 8.3162786 6.2148382 8.3160754 6.0175781 8.3164062 z M 7.1425781 8.3164062 C 7.1426185 8.3459895 7.1425103 8.4305978 7.1425781 8.4570312 C 7.3695532 8.4571256 7.5762093 8.4568888 7.8769531 8.4570312 C 7.8768885 8.4304133 7.8769913 8.3460852 7.8769531 8.3164062 C 7.5761997 8.3162638 7.3695619 8.3165006 7.1425781 8.3164062 z M 7.9355469 8.3164062 C 7.9359317 8.3460837 7.9371725 8.4304181 7.9375 8.4570312 C 8.3175329 8.4572053 8.3335159 8.4570165 8.8457031 8.4570312 L 8.8457031 8.3164062 C 8.3324222 8.3163915 8.3161452 8.3165808 7.9355469 8.3164062 z M 5.1113281 8.5039062 L 5.1113281 8.6601562 C 5.117418 8.6601807 5.1170611 8.6602778 5.1269531 8.6601562 C 5.1863063 8.6594264 5.3119268 8.6611261 5.5488281 8.6601562 C 5.6091709 8.6599092 5.8941451 8.6602895 5.9707031 8.6601562 C 5.9705757 8.6354893 5.97079 8.5321614 5.9707031 8.5039062 C 5.901 8.5040367 5.635935 8.5036775 5.5800781 8.5039062 C 5.3432449 8.504876 5.2172831 8.5031814 5.1582031 8.5039062 C 5.1286631 8.5042692 5.1184581 8.5037019 5.1113281 8.5039062 z M 6.0175781 8.5039062 C 6.0176646 8.5321528 6.0174513 8.6355029 6.0175781 8.6601562 C 6.2181456 8.6598443 6.7646207 8.6600213 7.0957031 8.6601562 C 7.0955757 8.6354893 7.09579 8.5321614 7.0957031 8.5039062 C 6.7688602 8.5037786 6.2148382 8.5035754 6.0175781 8.5039062 z M 7.1425781 8.5039062 C 7.1426646 8.5321528 7.1424513 8.6355029 7.1425781 8.6601562 C 7.3724779 8.6602552 7.5728368 8.6600146 7.8769531 8.6601562 C 7.8768319 8.6351333 7.8770356 8.5323934 7.8769531 8.5039062 C 7.5761997 8.5037638 7.369562 8.5040006 7.1425781 8.5039062 z M 7.9375 8.5039062 C 7.9378393 8.5323865 7.9392082 8.6351451 7.9394531 8.6601562 C 8.32314 8.6603283 8.3297264 8.6601513 8.8457031 8.6601562 L 8.8457031 8.5039062 C 8.3335237 8.5038915 8.3175443 8.5040803 7.9375 8.5039062 z M 5.1113281 8.7070312 L 5.1113281 8.8632812 C 5.1222803 8.8633543 5.1277401 8.8634635 5.1425781 8.8632812 C 5.2019313 8.8625523 5.3119268 8.848626 5.5488281 8.8476562 C 5.6088876 8.8474103 5.8941466 8.8477893 5.9707031 8.8476562 C 5.9707555 8.815208 5.9710208 8.8141237 5.9707031 8.7695312 C 5.9706396 8.7606128 5.9707593 8.7164859 5.9707031 8.7070312 C 5.8941536 8.7071645 5.6091535 8.7067842 5.5488281 8.7070312 C 5.3119951 8.7080011 5.1860331 8.7063064 5.1269531 8.7070312 C 5.1171065 8.7071522 5.1174786 8.707054 5.1113281 8.7070312 z M 6.0175781 8.7070312 C 6.0176341 8.7164798 6.0175149 8.7606197 6.0175781 8.7695312 C 6.017895 8.8140657 6.0196296 8.8151762 6.0214844 8.8476562 C 6.2217924 8.8473479 6.7658429 8.8475241 7.0957031 8.8476562 C 7.0957555 8.815208 7.0960208 8.8141237 7.0957031 8.7695312 C 7.0956396 8.7606128 7.0957593 8.7164859 7.0957031 8.7070312 C 6.7646081 8.7068963 6.2181261 8.7067193 6.0175781 8.7070312 z M 7.1425781 8.7070312 C 7.1426341 8.7164798 7.1425149 8.7606197 7.1425781 8.7695312 C 7.1428958 8.8140888 7.1426296 8.8151651 7.1425781 8.8476562 C 7.3736428 8.8477542 7.5758694 8.8475143 7.8808594 8.8476562 C 7.8796504 8.8196929 7.877191 8.8195666 7.8769531 8.7851562 C 7.8768752 8.7739398 7.87702 8.7190476 7.8769531 8.7070312 C 7.5728274 8.7068896 7.3724869 8.7071302 7.1425781 8.7070312 z M 7.9394531 8.7070312 C 7.9395596 8.7190399 7.9393752 8.7739488 7.9394531 8.7851562 C 7.9396909 8.8195276 7.9394441 8.8196775 7.9394531 8.8476562 C 8.3215527 8.8478281 8.3344838 8.8476465 8.8457031 8.8476562 L 8.8457031 8.7070312 C 8.3297352 8.7070263 8.323151 8.7072033 7.9394531 8.7070312 z M 8.8457031 8.8945312 C 8.3344929 8.8946006 8.3215634 8.896888 7.9394531 8.8984375 C 7.9392213 8.9604103 7.9389755 9.0434425 7.9394531 9.0664062 L 8.8457031 9.0664062 L 8.8457031 8.8945312 z M 7.8828125 8.8984375 C 7.5767958 8.8997509 7.3742638 8.9007078 7.1425781 8.9023438 C 7.1423425 8.9450895 7.1421757 9.0163302 7.1425781 9.0351562 C 7.1427791 9.0445672 7.1424168 9.0455613 7.1425781 9.0507812 C 7.1425781 9.0507812 7.1323631 9.0476512 7.1269531 9.0507812 L 7.1425781 9.0664062 L 7.8925781 9.0664062 C 7.8920943 9.043163 7.8870673 8.9603286 7.8828125 8.8984375 z M 7.0957031 8.9023438 C 6.7670285 8.9047114 6.2253664 8.9066655 6.0253906 8.9082031 C 6.0288904 8.9478817 6.0328184 9.0171579 6.0332031 9.0351562 C 6.033605 9.0539823 6.0329907 9.0621462 6.0332031 9.0664062 L 7.0957031 9.0664062 C 7.0954436 9.0611972 7.0961101 9.0542192 7.0957031 9.0351562 C 7.0952957 9.0160934 7.0954663 8.9450155 7.0957031 8.9023438 z M 5.9707031 8.9082031 C 5.8941551 8.9087746 5.6088703 8.9099103 5.5488281 8.9101562 C 5.311995 8.9111259 5.2016581 8.9094314 5.1425781 8.9101562 C 5.1278081 8.9103377 5.1223654 8.9102272 5.1113281 8.9101562 L 5.1113281 9.0664062 L 5.9863281 9.0664062 C 5.9860691 9.0611972 5.9711101 9.0542192 5.9707031 9.0351562 C 5.9703137 9.0169344 5.9704753 8.9478047 5.9707031 8.9082031 z M 6.5957031 9.2695312 L 6.5957031 9.3164062 L 5.0332031 9.3320312 L 5.0332031 9.2851562 L 6.5957031 9.2695312 z M 8.8457031 9.2695312 L 8.8457031 9.3164062 L 7.8925781 9.3320312 L 7.8925781 9.2851562 L 8.8457031 9.2695312 z M 5.0332031 9.3789062 L 6.5957031 9.3789062 L 6.5957031 9.4257812 L 5.0332031 9.4414062 L 5.0332031 9.3789062 z M 8.8457031 9.3789062 L 8.8457031 9.4257812 L 7.8925781 9.4414062 L 7.8925781 9.3945312 L 8.8457031 9.3789062 z M 6.5957031 9.4726562 L 6.5957031 9.5195312 L 5.0332031 9.5351562 L 5.0332031 9.4882812 L 6.5957031 9.4726562 z M 8.8457031 9.4726562 L 8.8457031 9.5351562 L 7.8925781 9.5351562 L 7.8925781 9.4882812 L 8.8457031 9.4726562 z M 6.5957031 9.5664062 L 6.5957031 9.6132812 L 5.0332031 9.6289062 L 5.0332031 9.5820312 L 6.5957031 9.5664062 z M 6.5957031 9.6601562 L 6.5957031 9.7070312 L 5.0332031 9.7226562 L 5.0332031 9.6757812 L 6.5957031 9.6601562 z M 6.5957031 9.7539062 L 6.5957031 9.8007812 L 5.0332031 9.8164062 L 5.0332031 9.7695312 L 6.5957031 9.7539062 z M 6.5957031 9.8632812 L 6.5957031 9.9101562 L 5.0332031 9.9257812 L 5.0332031 9.8789062 L 6.5957031 9.8632812 z M 6.5957031 9.9570312 L 6.5957031 10.003906 L 5.0332031 10.019531 L 5.0332031 9.9726562 L 6.5957031 9.9570312 z M 6.5957031 10.050781 L 6.5957031 10.097656 L 5.0332031 10.113281 L 5.0332031 10.066406 L 6.5957031 10.050781 z M 6.5957031 10.144531 L 6.5957031 10.191406 L 5.0332031 10.207031 L 5.0332031 10.160156 L 6.5957031 10.144531 z "/></svg>