<svg xmlns="http://www.w3.org/2000/svg" id="libre-search" viewBox="0 0 14 14"><path d="m 9.409996,2.4414063 c -1.92114,-1.92163005 -5.047381,-1.92163005 -6.968813,0 -1.921577,1.9211399 -1.921577,5.0475299 0,6.96881 1.855519,1.8554897 4.834556,1.9186397 6.767084,0.19043 l 0.390671,0.39082 c -0.09728,0.2489997 -0.04628,0.5424197 0.154807,0.7435297 l 2.061471,2.06145 c 0.270991,0.27116 0.710564,0.27116 0.98141,0 0.271165,-0.27085 0.271165,-0.71031 0,-0.98159 L 10.735329,9.7538263 c -0.201262,-0.20141 -0.494797,-0.25238 -0.743827,-0.15496 l -0.39067,-0.39081 c 1.728528,-1.93241 1.6648,-4.91145 -0.190836,-6.76665 z m -6.379938,6.38008 c -1.596673,-1.59649 -1.596673,-4.19476 0,-5.7914401 1.596528,-1.59667 4.19471,-1.59667 5.791354,0 1.596674,1.59668 1.596674,4.1949201 0,5.7914401 -1.596644,1.5964997 -4.194826,1.5964997 -5.791354,0 z"/></svg>