<svg xmlns="http://www.w3.org/2000/svg" id="libre-paste" viewBox="0 0 14 14"><path d="M 10.54781,10.879379 H 7.65552 v -0.875214 h 2.89229 v 0.875214 z M 10.54682,9.26267 H 7.65549 V 8.387456 h 2.89133 V 9.26267 z M 10.92021,4.947971 H 5.3745 V 13 h 7.36581 V 6.766466 l -1.8201,-1.818495 z m 0.65316,6.885087 H 6.54147 V 6.114912 H 10.045 v 1.322535 h 1.52837 v 4.395611 z M 4.33655,10.816845 H 2.41204 V 3.085903 H 4.17219 L 4.8991,3.815253 H 7.32779 L 8.06442,3.085903 H 9.7346 v 0.928573 h 1.18151 v -2.09065 h -1.662 c -0.26526,0 -0.51973,-0.104972 -0.70786,-0.291962 L 7.91124,1 H 4.26455 L 3.62957,1.631806 C 3.44145,1.818826 3.187,1.923796 2.92172,1.923796 H 1.25969 V 11.99835 h 3.07686 v -1.181505 z"/></svg>