<svg xmlns="http://www.w3.org/2000/svg" id="libre-close" viewBox="0 0 14 14"><path d="m 12,10.047142 q 0,0.3367 -0.235692,0.572383 l -1.144783,1.144783 Q 10.383842,12 10.047142,12 9.7104417,12 9.47475,11.764308 L 7,9.289558 4.52525,11.764308 Q 4.2895583,12 3.9528583,12 3.6161583,12 3.380475,11.764308 L 2.2356917,10.619525 Q 2,10.383842 2,10.047142 2,9.710442 2.2356917,9.47475 L 4.7104417,7 2.2356917,4.52525 Q 2,4.2895583 2,3.9528583 2,3.6161583 2.2356917,3.380475 L 3.380475,2.2356917 Q 3.6161583,2 3.9528583,2 4.2895583,2 4.52525,2.2356917 L 7,4.7104417 9.47475,2.2356917 Q 9.7104417,2 10.047142,2 q 0.3367,0 0.572383,0.2356917 L 11.764308,3.380475 Q 12,3.6161583 12,3.9528583 12,4.2895583 11.764308,4.52525 L 9.2895583,7 11.764308,9.47475 Q 12,9.710442 12,10.047142 z"/></svg>