<svg xmlns="http://www.w3.org/2000/svg" id="libre-folder-users" viewBox="0 0 14 14"><path d="M 2.6152344 1.9238281 C 2.1729297 1.9238281 1.7938698 2.0811242 1.4765625 2.3984375 C 1.1592545 2.7157442 1 3.0967558 1 3.5390625 L 1 10.460938 C 1 10.903244 1.1592545 11.284256 1.4765625 11.601562 C 1.7938698 11.918869 2.1729297 12.076172 2.6152344 12.076172 L 11.384766 12.076172 C 11.827072 12.076172 12.206131 11.918869 12.523438 11.601562 C 12.840744 11.284256 13 10.903244 13 10.460938 L 13 5.3847656 C 13 4.942459 12.840744 4.5634004 12.523438 4.2460938 C 12.206131 3.9287871 11.827072 3.7695312 11.384766 3.7695312 L 6.5390625 3.7695312 L 6.5390625 3.5390625 C 6.5390625 3.0967558 6.3798067 2.7157442 6.0625 2.3984375 C 5.7451933 2.0811242 5.3661348 1.9238281 4.9238281 1.9238281 L 2.6152344 1.9238281 z M 5.0507812 4.8886719 C 5.2715813 4.8886719 5.4609208 4.9667802 5.6171875 5.1230469 C 5.7734542 5.2793135 5.8515625 5.4667 5.8515625 5.6875 C 5.8515625 5.9083 5.7734542 6.0976396 5.6171875 6.2539062 C 5.4609208 6.4101729 5.2715813 6.4882813 5.0507812 6.4882812 C 4.8299812 6.4882812 4.6406417 6.4101729 4.484375 6.2539062 C 4.3281083 6.0976396 4.25 5.9083 4.25 5.6875 C 4.25 5.4667 4.3281083 5.2793135 4.484375 5.1230469 C 4.6406417 4.9667802 4.8299812 4.8886719 5.0507812 4.8886719 z M 8.6503906 4.8886719 C 8.8711906 4.8886719 9.0605302 4.9667802 9.2167969 5.1230469 C 9.3730635 5.2793135 9.4511719 5.4667 9.4511719 5.6875 C 9.4511719 5.9083 9.3730635 6.0976396 9.2167969 6.2539062 C 9.0605302 6.4101729 8.8711906 6.4882813 8.6503906 6.4882812 C 8.4295906 6.4882812 8.2422042 6.4101729 8.0859375 6.2539062 C 7.9296708 6.0976396 7.8515625 5.9083 7.8515625 5.6875 C 7.8515625 5.4667 7.9296708 5.2793135 8.0859375 5.1230469 C 8.2422042 4.9667802 8.4295906 4.8886719 8.6503906 4.8886719 z M 6.8515625 5.6875 C 7.1827625 5.6875 7.4648188 5.8046625 7.6992188 6.0390625 C 7.9336187 6.2734625 8.0507813 6.5574719 8.0507812 6.8886719 C 8.0507812 7.2198719 7.9336187 7.5019281 7.6992188 7.7363281 C 7.4648188 7.9707281 7.1827625 8.0878906 6.8515625 8.0878906 C 6.5203625 8.0878906 6.2363531 7.9707281 6.0019531 7.7363281 C 5.7675531 7.5019281 5.6503906 7.2198719 5.6503906 6.8886719 C 5.6503906 6.5574719 5.7675531 6.2734625 6.0019531 6.0390625 C 6.2363531 5.8046625 6.5203625 5.6875 6.8515625 5.6875 z M 4.2382812 6.4882812 C 4.2508146 6.4882812 4.2968667 6.509001 4.375 6.5527344 C 4.4531333 6.5964677 4.552801 6.6407469 4.6777344 6.6855469 C 4.8026677 6.7303469 4.9278479 6.7539063 5.0507812 6.7539062 C 5.1903813 6.7539062 5.3293302 6.7295073 5.4667969 6.6816406 C 5.4563969 6.7587073 5.4511719 6.8282719 5.4511719 6.8886719 C 5.4511719 7.1782719 5.534325 7.4437667 5.703125 7.6875 C 5.3656583 7.6979 5.0896667 7.831624 4.875 8.0878906 L 4.4570312 8.0878906 C 4.2862313 8.0878906 4.1420573 8.0453375 4.0253906 7.9609375 C 3.908724 7.8765375 3.8515625 7.7543302 3.8515625 7.5917969 C 3.8515625 6.8563302 3.9800146 6.4882813 4.2382812 6.4882812 z M 9.4628906 6.4882812 C 9.7211573 6.4882812 9.8496094 6.8563302 9.8496094 7.5917969 L 9.8515625 7.5917969 C 9.8515625 7.7543302 9.7924479 7.8765375 9.6757812 7.9609375 C 9.5591146 8.0453375 9.4149406 8.0878906 9.2441406 8.0878906 L 8.8261719 8.0878906 C 8.6116385 7.831624 8.3356469 7.6979 7.9980469 7.6875 C 8.1668469 7.4437667 8.25 7.1782719 8.25 6.8886719 C 8.25 6.8282719 8.244775 6.7587073 8.234375 6.6816406 C 8.3718417 6.7295073 8.5107906 6.7539063 8.6503906 6.7539062 C 8.773324 6.7539062 8.8985042 6.7323 9.0234375 6.6875 C 9.1483708 6.6427 9.2480385 6.5984208 9.3261719 6.5546875 C 9.4043052 6.5109542 9.4503573 6.4882813 9.4628906 6.4882812 z M 5.7324219 7.8886719 C 5.7532219 7.8886719 5.7983875 7.9102781 5.8671875 7.9550781 C 5.9359875 7.9998781 6.0104167 8.0502688 6.09375 8.1054688 C 6.1770833 8.1606688 6.2900875 8.2110594 6.4296875 8.2558594 C 6.5692875 8.3006594 6.7099625 8.3222656 6.8515625 8.3222656 C 6.9931625 8.3222656 7.1338375 8.3006594 7.2734375 8.2558594 C 7.4130375 8.2110594 7.5240885 8.1606688 7.6074219 8.1054688 C 7.6907552 8.0502687 7.7671375 7.9998781 7.8359375 7.9550781 C 7.9047375 7.9102781 7.94795 7.8886719 7.96875 7.8886719 C 8.0958167 7.8886719 8.2131594 7.9094385 8.3183594 7.9511719 C 8.4235594 7.9929052 8.5130042 8.0474542 8.5859375 8.1171875 C 8.6588708 8.1869208 8.7230302 8.2720271 8.7792969 8.3710938 C 8.8355635 8.4701604 8.8807292 8.5717813 8.9140625 8.6757812 C 8.9473958 8.7797813 8.9742271 8.893625 8.9960938 9.015625 C 9.0179604 9.137625 9.0336823 9.2504021 9.0410156 9.3554688 C 9.048349 9.4605354 9.0507812 9.5691542 9.0507812 9.6796875 C 9.0507812 9.9296875 8.974399 10.126684 8.8222656 10.271484 C 8.6701323 10.416284 8.4687969 10.488281 8.2167969 10.488281 L 5.484375 10.488281 C 5.2322417 10.488281 5.0309063 10.416284 4.8789062 10.271484 C 4.7269062 10.126684 4.650524 9.9296875 4.6503906 9.6796875 C 4.6503906 9.5692875 4.654776 9.4606688 4.6621094 9.3554688 C 4.6694427 9.2502687 4.6832115 9.1374917 4.7050781 9.015625 C 4.7269448 8.8937583 4.7557292 8.7799146 4.7890625 8.6757812 C 4.8223958 8.5716479 4.8656083 8.4700271 4.921875 8.3710938 C 4.9781417 8.2721604 5.0442542 8.1870542 5.1171875 8.1171875 C 5.1901208 8.0473208 5.2776125 7.9927719 5.3828125 7.9511719 C 5.4880125 7.9095719 5.6053552 7.8888052 5.7324219 7.8886719 z "/></svg>