<svg xmlns="http://www.w3.org/2000/svg" id="libre-view" viewBox="0 0 14 14"><path d="m 7.014388,10.499265 c -2.425543,0 -4.630136,-1.66855 -6.014388,-3.69754 1.396777,-1.95793 3.601049,-3.30099 6.014388,-3.30099 2.418408,0 4.630049,1.3197 5.985612,3.28855 -1.285311,2.14209 -3.485592,3.70998 -5.985612,3.70998 z M 2.26999,6.818615 c 1.158728,1.4312 2.869748,2.66106 4.744427,2.66106 2.553641,0 4.206583,-1.91359 4.747952,-2.64993 -1.151651,-1.35496 -2.846155,-2.30948 -4.747952,-2.30948 -2.470339,0 -4.153922,1.62594 -4.744427,2.29835 z m 4.797292,-1.83906 c -1.115884,0 -2.020428,0.90457 -2.020428,2.02043 0,1.11585 0.904573,2.02043 2.020428,2.02043 1.115854,0 2.020456,-0.90458 2.020456,-2.02043 0,-1.11586 -0.904602,-2.02043 -2.020456,-2.02043 z m -0.0019,2.01976 c -0.285203,0.28517 -0.747553,0.28517 -1.032757,0 -0.285204,-0.28521 -0.285204,-0.74758 0,-1.03276 0.285204,-0.2852 0.747554,-0.2852 1.032757,0 0.285204,0.28518 0.285204,0.74755 0,1.03276 z"/></svg>