<svg xmlns="http://www.w3.org/2000/svg" id="libre-arrow-left" viewBox="0 0 14 14"><path d="m 12.668805,6.50706 v 0.98588 q 0,0.40822 -0.25032,0.69705 -0.25032,0.28883 -0.65083,0.28883 h -5.42234 l 2.25674,2.26444 q 0.29268,0.27728 0.29268,0.6932 0,0.41591 -0.29268,0.69319 l -0.57766,0.58537 Q 7.739415,13 7.331195,13 6.930685,13 6.630295,12.71502 L 1.616175,7.6932 Q 1.331195,7.40822 1.331195,7 q 0,-0.40051 0.28498,-0.7009 L 6.630295,1.29268 Q 6.922975,1 7.331195,1 q 0.40051,0 0.6932,0.29268 l 0.57766,0.56996 q 0.29268,0.29269 0.29268,0.7009 0,0.40822 -0.29268,0.7009 l -2.25674,2.25674 h 5.42234 q 0.40051,0 0.65083,0.28883 0.25032,0.28883 0.25032,0.69705 z"/></svg>