<svg xmlns="http://www.w3.org/2000/svg" id="libre-question-circle" viewBox="0 0 14 14"><path d="M 6.9198484,1.0005452 C 3.6064257,1.0448929 0.95652234,3.7671873 1.0006091,7.0807404 1.0449568,10.392859 3.7669904,13.043545 7.0802826,12.999458 10.393053,12.954849 13.043478,10.232555 12.999391,6.9192627 12.955044,3.6068835 10.23288,0.95632795 6.9198484,1.0005452 Z m -0.017739,9.6516168 -0.03313,-5.22e-4 C 6.35872,10.63651 5.9989822,10.260598 6.0134604,9.7579041 6.0276777,9.2638191 6.3961547,8.905125 6.8895876,8.905125 l 0.029609,5.218e-4 C 7.443673,8.9211688 7.7993673,9.2932971 7.7846282,9.8104691 7.7700192,10.305989 7.4072818,10.652162 6.9021097,10.652162 Z M 9.0484058,6.3923081 C 8.9284063,6.5627858 8.6645377,6.7744807 8.3320606,7.0335232 L 7.9659315,7.2863049 C 7.7649323,7.4425652 7.6436284,7.5895646 7.5981068,7.7342163 7.5622373,7.8480854 7.5446287,7.8782157 7.5414983,8.1098671 l -5.217e-4,0.058826 -1.3979949,0 0.00404,-0.1183039 C 6.164112,7.5641299 6.176112,7.2780875 6.377633,7.0417405 6.6938057,6.6705245 7.391238,6.2214392 7.4208466,6.2023958 7.5207592,6.1271352 7.6050198,6.0414399 7.6677587,5.949875 7.8144973,5.7475714 7.8794536,5.5883111 7.8794536,5.4317899 7.8794536,5.2146168 7.815019,5.013748 7.6875847,4.8349225 7.5651069,4.6623579 7.3324121,4.574967 6.9958916,4.574967 6.6621102,4.574967 6.4335893,4.6808796 6.2968941,4.8981832 6.156286,5.1216171 6.0851993,5.3562684 6.0851993,5.5960067 l 0,0.059608 -1.4414295,0 0.00261,-0.062217 C 4.6835522,4.7104882 4.9986815,4.0747514 5.5826359,3.7037962 5.9495476,3.4675797 6.4060677,3.347841 6.9387614,3.347841 c 0.6973018,0 1.2859518,0.1694342 1.7493849,0.5036069 0.4695635,0.3386074 0.7077365,0.845736 0.7077365,1.5072988 0,0.3700421 -0.1168691,0.7176496 -0.347477,1.0335614 z"/></svg>