<svg xmlns="http://www.w3.org/2000/svg" id="libre-home" viewBox="0 0 14 14"><path d="m 12.829686,6.6209583 -4.2411171,-4.7173 c -0.41099,-0.45697 -1.000463,-0.72527 -1.613754,-0.71676 -0.614554,0.002 -1.201601,0.26554 -1.610189,0.72453 l -4.196428,4.71195 c -0.24399498,0.27418 -0.21958298,0.69396 0.05422,0.93798 0.126788,0.11279 0.284499,0.16815 0.44169,0.16815 0.182791,0 0.365063,-0.0751 0.496307,-0.22262 l 4.196552,-4.70955 c 0.157712,-0.1772 0.383905,-0.2771 0.621016,-0.2771 6.44e-4,0 0.0015,0 0.002,0 0.236394,0 0.462463,0.0983 0.62052,0.27405 l 4.2412421,4.71616 c 0.245182,0.27331 0.665605,0.2948 0.938121,0.0493 0.272813,-0.24516 0.295071,-0.66573 0.04979,-0.93876 z m -5.2464081,-3.07186 c -0.152116,-0.17806 -0.374471,-0.28078 -0.608587,-0.28078 -0.23419,0 -0.45657,0.1027 -0.608537,0.28078 l -3.414261,4.00196 c -0.211956,0.24832 -0.303216,0.57788 -0.249119,0.89991 l 0.619778,3.6968297 c 0.06464,0.38542 0.398165,0.66546 0.788927,0.66546 l 2.97767,0 c -8.91e-4,-0.014 0.0011,-0.0192 0.0011,-0.0314 l 0,-2.68426 c 0,-0.1742497 0.138623,-0.3174297 0.312872,-0.3174297 l 1.434528,0 c 0.174398,0 0.31671,0.1432 0.31671,0.3174297 l 0,2.7157 0.683505,0 c 0.3908121,0 0.7244071,-0.28004 0.7889521,-0.66546 l 0.619753,-3.6978397 c 0.05412,-0.32216 -0.03714,-0.65058 -0.249218,-0.8989 l -3.4141121,-4.00196 z m -1.41992,7.5020997 c 0,0.1744 -0.14142,0.31582 -0.31567,0.31582 l -1.095833,0 c -0.174398,0 -0.31567,-0.14142 -0.31567,-0.31582 l 0,-1.0958297 c 0,-0.17425 0.141297,-0.31567 0.31567,-0.31567 l 1.095833,0 c 0.17425,0 0.31567,0.14142 0.31567,0.31567 l 0,1.0958297 z"/></svg>