<svg xmlns="http://www.w3.org/2000/svg" id="libre-arrow-right" viewBox="0 0 14 14"><path d="m 12.668805,7 q 0,0.41592 -0.28498,0.7009 l -5.01412,5.01412 Q 7.069325,13 6.668805,13 6.275995,13 5.975615,12.71502 l -0.57767,-0.57766 q -0.29268,-0.29269 -0.29268,-0.7009 0,-0.40822 0.29268,-0.7009 l 2.25674,-2.25674 h -5.42233 q -0.40052,0 -0.65084,-0.28883 Q 1.331195,7.90116 1.331195,7.49294 V 6.50706 q 0,-0.40822 0.25032,-0.69705 0.25032,-0.28883 0.65084,-0.28883 h 5.42233 L 5.397945,3.25674 q -0.29268,-0.27728 -0.29268,-0.6932 0,-0.41591 0.29268,-0.69319 L 5.975615,1.29268 Q 6.268295,1 6.668805,1 q 0.40822,0 0.7009,0.29268 l 5.01412,5.01412 Q 12.668805,6.57638 12.668805,7 z"/></svg>