<svg xmlns="http://www.w3.org/2000/svg" id="libre-resize-small" viewBox="0 0 14 14"><path d="m 6.491328,7.000195 -3.560223,0 c -0.137727,0 -0.256921,0.0503 -0.357583,0.15109 -0.100662,0.10057 -0.150992,0.21986 -0.150992,0.35759 0,0.13772 0.05033,0.25692 0.150992,0.35758 l 1.144344,1.14424 -2.63837,2.63847 c -0.05306,0.053 -0.0795,0.11393 -0.0795,0.18269 0,0.069 0.02643,0.12993 0.0795,0.18289 l 0.905858,0.90576 c 0.05306,0.053 0.113927,0.0794 0.18279,0.0794 0.06886,0 0.129827,-0.0264 0.182791,-0.0794 l 2.638369,-2.63837 1.144344,1.14435 c 0.100661,0.10056 0.219856,0.15099 0.357582,0.15099 0.137825,0 0.257019,-0.0504 0.357681,-0.15099 0.100662,-0.10057 0.150992,-0.21986 0.150992,-0.35759 l 0,-3.56022 c 0,-0.13773 -0.05033,-0.25702 -0.150894,-0.35748 -0.100662,-0.10067 -0.219856,-0.151 -0.357681,-0.151 z m 6.508673,-4.83185 c 0,-0.0689 -0.02653,-0.12973 -0.07959,-0.18279 l -0.905955,-0.90596 c -0.05296,-0.0531 -0.113829,-0.0795 -0.182693,-0.0795 -0.06896,0 -0.129826,0.0265 -0.18279,0.0795 L 9.010408,3.717965 7.86626,2.573625 c -0.100564,-0.10067 -0.219954,-0.151 -0.357681,-0.151 -0.137727,0 -0.256921,0.0503 -0.357583,0.151 -0.100661,0.10066 -0.150992,0.21985 -0.150992,0.35758 l 0,3.56022 c 0,0.13783 0.05033,0.25702 0.150992,0.35768 0.100662,0.10066 0.219856,0.151 0.357583,0.151 l 3.560223,0 c 0.137727,0 0.257117,-0.0503 0.357681,-0.151 0.100662,-0.10066 0.15109,-0.21985 0.15109,-0.35768 0,-0.13772 -0.05043,-0.25692 -0.15109,-0.35758 l -1.144344,-1.14434 2.638565,-2.63837 c 0.05277,-0.053 0.0793,-0.11393 0.0793,-0.18279 z"/></svg>