<svg xmlns="http://www.w3.org/2000/svg" id="libre-archive" viewBox="0 0 14 14"><path d="M 8.38462,6.5 Q 8.38462,6.296875 8.2476,6.148437 8.11058,6 7.92308,6 H 6.07692 Q 5.88942,6 5.7524,6.148437 5.61538,6.296875 5.61538,6.5 q 0,0.203125 0.13702,0.351563 Q 5.88942,7 6.07692,7 H 7.92308 Q 8.11058,7 8.2476,6.851563 8.38462,6.703125 8.38462,6.5 z M 12.53846,5 v 7.5 q 0,0.203125 -0.13702,0.351563 Q 12.26442,13 12.07692,13 H 1.923077 Q 1.735577,13 1.598558,12.851563 1.461538,12.703125 1.461538,12.5 V 5 q 0,-0.203125 0.13702,-0.351563 Q 1.735577,4.5 1.923077,4.5 H 12.07692 q 0.1875,0 0.32452,0.148437 Q 12.53846,4.796875 12.53846,5 z M 13,1.5 v 2 Q 13,3.703125 12.86298,3.851563 12.72596,4 12.53846,4 H 1.461538 Q 1.274038,4 1.137019,3.851563 1,3.703125 1,3.5 v -2 Q 1,1.296875 1.137019,1.148437 1.274038,1 1.461538,1 H 12.53846 q 0.1875,0 0.32452,0.148437 Q 13,1.296875 13,1.5 z"/></svg>