<svg xmlns="http://www.w3.org/2000/svg" id="libre-help" viewBox="0 0 14 14"><path d="M 7,1 C 3.686607,1 1,3.68661 1,7 c 0,3.31339 2.686607,6 6,6 3.313393,0 6,-2.68661 6,-6 C 13,3.68661 10.313393,1 7,1 Z m 4.775893,4.08482 -1.647322,0.50625 C 9.959821,5.21607 9.724107,4.87321 9.424107,4.57321 9.124107,4.27321 8.78125,4.0375 8.40625,3.86875 L 8.9125,2.22143 c 0.6375,0.25446 1.221429,0.64018 1.722321,1.13839 0.500893,0.50357 0.886608,1.0875 1.141072,1.725 z M 7,9.57143 C 5.580357,9.57143 4.428571,8.41964 4.428571,7 4.428571,5.58036 5.580357,4.42857 7,4.42857 8.419643,4.42857 9.571429,5.58036 9.571429,7 9.571429,8.41964 8.419643,9.57143 7,9.57143 Z M 3.3625,3.3625 C 3.863393,2.86161 4.447321,2.47857 5.084821,2.22411 l 0.50625,1.64732 c -0.375,0.16875 -0.717857,0.40446 -1.017857,0.70446 -0.3,0.3 -0.535714,0.64286 -0.704464,1.01786 L 2.221429,5.0875 C 2.478571,4.44732 2.864286,3.86339 3.3625,3.3625 Z M 2.224107,8.91518 3.871429,8.40893 c 0.16875,0.375 0.404464,0.71786 0.704464,1.01786 0.3,0.3 0.642857,0.53571 1.017857,0.70446 L 5.0875,11.77857 C 4.45,11.52411 3.866071,11.13839 3.365179,10.64018 2.864286,10.13661 2.478571,9.55268 2.224107,8.91518 Z M 10.6375,10.6375 c -0.500893,0.50089 -1.084821,0.88393 -1.722321,1.13839 l -0.50625,-1.64732 c 0.375,-0.16875 0.717857,-0.40446 1.017857,-0.70446 0.3,-0.3 0.535714,-0.64286 0.704464,-1.01786 l 1.647321,0.50625 c -0.257142,0.64018 -0.642857,1.22411 -1.141071,1.725 z"/></svg>