<?xml version="1.0" encoding="UTF-8" standalone="no"?>
<svg
   xmlns:dc="http://purl.org/dc/elements/1.1/"
   xmlns:cc="http://creativecommons.org/ns#"
   xmlns:rdf="http://www.w3.org/1999/02/22-rdf-syntax-ns#"
   xmlns:svg="http://www.w3.org/2000/svg"
   xmlns="http://www.w3.org/2000/svg"
   xmlns:sodipodi="http://sodipodi.sourceforge.net/DTD/sodipodi-0.dtd"
   xmlns:inkscape="http://www.inkscape.org/namespaces/inkscape"
   id="libre-folder"
   viewBox="0 0 14 14"
   version="1.1"
   inkscape:version="0.91 r"
   sodipodi:docname="libre-folder-document (new).svg">
  <metadata
     id="metadata9">
    <rdf:RDF>
      <cc:Work
         rdf:about="">
        <dc:format>image/svg+xml</dc:format>
        <dc:type
           rdf:resource="http://purl.org/dc/dcmitype/StillImage" />
        <dc:title></dc:title>
      </cc:Work>
    </rdf:RDF>
  </metadata>
  <defs
     id="defs7" />
  <sodipodi:namedview
     pagecolor="#ffffff"
     bordercolor="#666666"
     borderopacity="1"
     objecttolerance="10"
     gridtolerance="10"
     guidetolerance="10"
     inkscape:pageopacity="0"
     inkscape:pageshadow="2"
     inkscape:window-width="1366"
     inkscape:window-height="716"
     id="namedview5"
     showgrid="false"
     inkscape:zoom="25.841754"
     inkscape:cx="4.3117799"
     inkscape:cy="8.9263154"
     inkscape:window-x="0"
     inkscape:window-y="0"
     inkscape:window-maximized="1"
     inkscape:current-layer="libre-folder" />
  <path
     d="M 2.6152344 1.9238281 C 2.1729297 1.9238281 1.7938698 2.0811242 1.4765625 2.3984375 C 1.1592545 2.7157442 1 3.0967558 1 3.5390625 L 1 10.460938 C 1 10.903244 1.1592545 11.284256 1.4765625 11.601562 C 1.7938698 11.918869 2.1729297 12.076172 2.6152344 12.076172 L 11.384766 12.076172 C 11.827072 12.076172 12.206131 11.918869 12.523438 11.601562 C 12.840744 11.284256 13 10.903244 13 10.460938 L 13 5.3847656 C 13 4.942459 12.840744 4.5634004 12.523438 4.2460938 C 12.206131 3.9287871 11.827072 3.7695312 11.384766 3.7695312 L 6.5390625 3.7695312 L 6.5390625 3.5390625 C 6.5390625 3.0967558 6.3798067 2.7157442 6.0625 2.3984375 C 5.7451933 2.0811242 5.3661348 1.9238281 4.9238281 1.9238281 L 2.6152344 1.9238281 z M 4.5996094 4.7128906 L 6.8496094 4.7128906 C 6.9527344 4.7128906 7.0970079 4.7727881 7.1699219 4.8457031 L 9.1542969 6.8300781 C 9.2272109 6.9029931 9.2871094 7.0472656 9.2871094 7.1503906 L 9.2871094 10.525391 C 9.2871094 10.628521 9.2027344 10.712891 9.0996094 10.712891 L 4.5996094 10.712891 C 4.4964844 10.712891 4.4121094 10.628516 4.4121094 10.525391 L 4.4121094 4.9003906 C 4.4121094 4.7972656 4.4964844 4.7128906 4.5996094 4.7128906 z M 7.9746094 4.7128906 L 9.0996094 4.7128906 C 9.2027344 4.7128906 9.2871094 4.7972656 9.2871094 4.9003906 L 9.2871094 6.0253906 C 9.2871094 6.1285156 9.2272229 6.1530031 9.1542969 6.0800781 L 7.9199219 4.8457031 C 7.8470079 4.7727881 7.8714844 4.7128906 7.9746094 4.7128906 z M 4.7871094 5.0878906 L 4.7871094 10.337891 L 8.9121094 10.337891 L 8.9121094 7.1542969 C 8.9092994 7.1372069 8.8968087 7.1058469 8.8867188 7.0917969 L 6.9082031 5.1132812 C 6.8941281 5.1031812 6.8627881 5.0908906 6.8457031 5.0878906 L 4.7871094 5.0878906 z M 5.3496094 7.0488281 L 6.6972656 7.0488281 L 6.6972656 8.5722656 L 5.3496094 8.5722656 L 5.3496094 7.0488281 z M 7.1816406 7.0488281 L 8.3496094 7.0488281 L 8.3496094 7.5839844 L 7.1816406 7.5839844 L 7.1816406 7.0488281 z M 7.1816406 8.0351562 L 8.3496094 8.0351562 L 8.3496094 8.5722656 L 7.1816406 8.5722656 L 7.1816406 8.0351562 z M 5.3496094 9.0253906 L 8.3496094 9.0253906 L 8.3496094 9.5605469 L 5.3496094 9.5605469 L 5.3496094 9.0253906 z "
     id="path3" />
</svg>
