<svg xmlns="http://www.w3.org/2000/svg" id="libre-file-code" viewBox="0 0 14 14"><path d="m 5.3416446,6.5903272 c 0.030727,-0.042227 0.071033,-0.06622 0.1209178,-0.071981 0.049931,-0.00575 0.095998,0.00672 0.1382017,0.037431 l 0.2936612,0.218812 c 0.042249,0.030709 0.06624,0.071017 0.071973,0.1209221 0.00574,0.049902 -0.00673,0.095968 -0.037405,0.1381965 l -1.0479919,1.3992409 1.0479915,1.399241 c 0.030727,0.04223 0.043195,0.08829 0.037405,0.138198 -0.00579,0.0499 -0.029781,0.09021 -0.071973,0.1209223 l -0.2936612,0.218811 c -0.042249,0.03071 -0.088317,0.04318 -0.1382017,0.03743 -0.049931,-0.0058 -0.090237,-0.02975 -0.1209178,-0.07198 L 4.0402863,8.5423534 c -0.053715,-0.072937 -0.053715,-0.1458741 0,-0.2188112 z M 9.9597122,8.323544 c 0.053717,0.072937 0.053717,0.1458741 0,0.2188111 L 8.6583627,10.275572 c -0.030726,0.04223 -0.071035,0.06622 -0.1209264,0.07198 -0.049874,0.0058 -0.095938,-0.0067 -0.138193,-0.03743 l -0.2936698,-0.21881 c -0.042249,-0.03071 -0.06624,-0.07102 -0.071973,-0.1209223 -0.00579,-0.0499 0.00668,-0.09597 0.037405,-0.138198 L 9.1189974,8.4329504 8.0710058,7.0337091 c -0.030726,-0.042227 -0.043195,-0.088292 -0.037405,-0.1381965 0.00574,-0.049902 0.029724,-0.09021 0.071973,-0.1209221 l 0.2936698,-0.218812 c 0.042249,-0.030709 0.088314,-0.043186 0.138193,-0.037431 0.049931,0.00575 0.09024,0.02975 0.1209264,0.071981 z m -3.570076,2.654529 c -0.049931,-0.0077 -0.08928,-0.03262 -0.1180457,-0.07485 -0.028778,-0.04223 -0.039325,-0.08829 -0.031644,-0.138196 L 7.0345799,5.9799614 c 0.00768,-0.049902 0.032648,-0.08925 0.074897,-0.1180423 0.042249,-0.028789 0.088313,-0.039346 0.1381929,-0.03167 l 0.3627706,0.057578 c 0.049931,0.00768 0.08928,0.032627 0.1180458,0.074853 0.028778,0.042227 0.039325,0.088292 0.031644,0.1381973 l -0.794634,4.7850616 c -0.00768,0.0499 -0.032647,0.08925 -0.074896,0.118042 -0.042249,0.02879 -0.088317,0.03935 -0.1382016,0.03167 z M 7.640148,1.26517 C 7.49432,1.11934 7.20625,1 7,1 L 2.5,1 C 2.29375,1 2.125,1.16875 2.125,1.375 l 0,11.25 C 2.125,12.83125 2.29375,13 2.5,13 l 9,0 c 0.20625,0 0.375,-0.16875 0.375,-0.375 l 0,-6.75 c 0,-0.20625 -0.11932,-0.49432 -0.265148,-0.64015 L 7.640148,1.26517 Z M 11.125,12.25 l -8.25,0 0,-10.5 4.115133,0 c 0.03417,0.006 0.09853,0.0323 0.12668,0.0525 l 3.955734,3.95571 c 0.02018,0.0281 0.04683,0.0925 0.05245,0.12668 l 0,6.36513 z M 11.5,1 9.25,1 C 9.04375,1 8.99432,1.11932 9.140148,1.26515 l 2.46968,2.46968 C 11.75568,3.88068 11.875,3.83125 11.875,3.625 l 0,-2.25 C 11.875,1.16875 11.70625,1 11.5,1 Z"/></svg>