<svg xmlns="http://www.w3.org/2000/svg" id="libre-cut" viewBox="0 0 14 14"><path d="M 10.163566,12.99997 C 9.5258789,12.99995 8.7295189,12.61072 8.3867929,11.74133 8.3391229,11.62789 8.2866909,11.49022 8.2260349,11.33096 8.0318549,10.82122 7.7383939,10.0509 7.4316909,9.73182 7.3194259,9.61501 7.2325899,9.53028 7.1627929,9.4622 7.1001429,9.4011 7.0474569,9.34967 6.9999959,9.29769 c -0.04746,0.052 -0.100149,0.1034 -0.162844,0.16458 -0.06975,0.0681 -0.156562,0.15279 -0.268781,0.26953 -0.306703,0.31912 -0.600188,1.08956 -0.794414,1.59935 -0.06061,0.15916 -0.113039,0.29674 -0.160688,0.41013 -0.342773,0.86942 -1.139109,1.25869 -1.77675,1.25869 -0.124289,0 -0.237609,-0.0151 -0.336867,-0.0449 -0.627469,-0.18858 -1.008094,-0.8892 -0.947133,-1.74342 l 0.0087,-0.0986 c 0.07704,-0.68916 0.496852,-1.37011 1.18207,-1.91733 0.594,-0.47433 1.296329,-0.76903 1.832907,-0.76903 0.106172,0 0.204187,0.0116 0.293414,0.0345 l 0.368226,-0.7549 C 5.8593679,6.75909 5.3202109,5.3444 4.8990159,4.10521 4.6642889,3.41467 4.4900779,2.8491 4.3811879,2.42425 4.2088749,1.7518 4.2198679,1.52441 4.2894079,1.38991 l 0.201604,-0.38994 2.509054,5.14371 2.508891,-5.14369 0.201609,0.38989 c 0.06954,0.1345 0.08058,0.36189 -0.09176,1.03434 -0.10889,0.42483 -0.283101,0.9904 -0.517804,1.68094 -0.421172,1.23909 -0.960328,2.6538 -1.338821,3.60108 l 0.368227,0.75489 c 0.0892,-0.0229 0.187195,-0.0345 0.293391,-0.0345 0.536601,0 1.238929,0.29471 1.8329531,0.76908 0.58582,0.46786 0.977648,1.03353 1.127109,1.61841 l 0.02763,-0.0132 0.03598,0.41067 c 0.06101,0.85418 -0.31957,1.5548 -0.946968,1.74342 -0.09926,0.0298 -0.212602,0.045 -0.336867,0.045 -4.7e-5,2e-5 -7.1e-5,2e-5 -7.1e-5,2e-5 z M 9.1290819,11.33469 c 0.443812,0.80515 0.840328,0.92557 1.0374141,0.92557 0.268289,0 0.469172,-0.21652 0.508383,-0.42584 0.02571,-0.1376 0.03037,-0.27923 0.01387,-0.42096 -0.06649,-0.56615 -0.453235,-1.05229 -0.7658911,-1.3604 -0.429703,-0.4234 -0.911461,-0.70458 -1.220742,-0.82735 -0.03077,-0.0107 -0.04971,-0.0123 -0.05834,-0.0123 -0.006,0 -0.0083,7.3e-4 -0.0083,7.3e-4 -0.09007,0.0585 -0.197766,0.73875 0.493617,2.12058 z M 5.2921049,9.22571 c -0.307383,0.12281 -0.786211,0.40397 -1.213218,0.82737 -0.310782,0.30809 -0.695063,0.79425 -0.761133,1.36059 -0.0165,0.14133 -0.01186,0.28287 0.0138,0.42078 0.03893,0.20929 0.238571,0.42583 0.505219,0.42583 0.195844,0 0.589922,-0.12044 1.031039,-0.92554 0.687,-1.38136 0.580406,-2.06119 0.489914,-2.12093 0,2e-5 -2.3e-5,2e-5 -9.3e-5,2e-5 -4.69e-4,0 -0.0029,-4.2e-4 -0.0075,-4.2e-4 -0.0086,-3e-5 -0.02738,0.002 -0.05803,0.0123 z"/></svg>