<svg xmlns="http://www.w3.org/2000/svg" id="libre-file-audio" viewBox="0 0 14 14"><path d="M 9.4282179,5.669492 5.8397513,6.4160412 5.8361013,9.1311478 C 5.1311088,8.991967 4.3995268,9.618134 4.6077293,10.208003 c 0.2752765,0.779988 1.8264555,0.545067 1.827624,-0.506953 4.87e-4,-0.433351 -3.57e-4,-1.4573847 -6e-4,-2.1676697 l 2.3940856,-0.5969466 0,1.8205466 C 8.1237813,8.6178328 7.3922968,9.244064 7.6004343,9.833868 7.8757108,10.613921 9.4268899,10.379 9.4280909,9.326916 c 3.895e-4,-0.3630315 1.3e-4,-3.657424 1.3e-4,-3.657424 z M 7.640148,1.26517 C 7.49432,1.11934 7.20625,1 7,1 L 2.5,1 C 2.29375,1 2.125,1.16875 2.125,1.375 l 0,11.25 C 2.125,12.83125 2.29375,13 2.5,13 l 9,0 c 0.20625,0 0.375,-0.16875 0.375,-0.375 l 0,-6.75 c 0,-0.20625 -0.11932,-0.49432 -0.265148,-0.64015 L 7.640148,1.26517 Z M 11.125,12.25 l -8.25,0 0,-10.5 4.115133,0 c 0.03417,0.006 0.09853,0.0323 0.12668,0.0525 l 3.955734,3.95571 c 0.02018,0.0281 0.04683,0.0925 0.05245,0.12668 l 0,6.36513 z M 11.5,1 9.25,1 C 9.04375,1 8.99432,1.11932 9.140148,1.26515 l 2.46968,2.46968 C 11.75568,3.88068 11.875,3.83125 11.875,3.625 l 0,-2.25 C 11.875,1.16875 11.70625,1 11.5,1 Z" /></svg>