<svg xmlns="http://www.w3.org/2000/svg" id="libre-sort" viewBox="0 0 14 14"><path d="m 9.90909,8.090909 q 0,0.147728 -0.1079533,0.255682 L 7.2556833,10.892045 Q 7.14773,11 7.0000033,11 6.8522767,11 6.7443167,10.892045 L 4.1988633,8.346591 Q 4.09091,8.238637 4.09091,8.090909 q 0,-0.147727 0.1079533,-0.2556817 0.1079534,-0.1079546 0.25568,-0.1079546 l 5.0909134,0 q 0.1477266,0 0.25568,0.1079546 Q 9.90909,7.943182 9.90909,8.090909 Z m 0,-2.1818177 q 0,0.1477267 -0.1079533,0.2556814 -0.1079534,0.1079546 -0.25568,0.1079546 l -5.0909134,0 q -0.1477266,0 -0.25568,-0.1079546 Q 4.09091,6.056818 4.09091,5.9090913 q 0,-0.147728 0.1079533,-0.2556826 L 6.7443167,3.1079547 Q 6.8522767,3 7.0000033,3 7.14773,3 7.2556833,3.1079547 l 2.5454534,2.545454 Q 9.90909,5.7613633 9.90909,5.9090913 Z"/></svg>