<svg xmlns="http://www.w3.org/2000/svg" id="libre-film" viewBox="0 0 14 14"><path d="M 3.4,11 V 10.2 Q 3.4,10.0375 3.28125,9.91875 3.1625,9.8 3,9.8 H 2.2 Q 2.0375,9.8 1.91875,9.91875 1.8,10.0375 1.8,10.2 V 11 q 0,0.1625 0.11875,0.28125 Q 2.0375,11.4 2.2,11.4 H 3 q 0.1625,0 0.28125,-0.11875 Q 3.4,11.1625 3.4,11 z m 0,-2.4 V 7.8 Q 3.4,7.6375 3.28125,7.51875 3.1625,7.4 3,7.4 H 2.2 Q 2.0375,7.4 1.91875,7.51875 1.8,7.6375 1.8,7.8 V 8.6 Q 1.8,8.7625 1.91875,8.88125 2.0375,9 2.2,9 H 3 Q 3.1625,9 3.28125,8.88125 3.4,8.7625 3.4,8.6 z m 0,-2.4 V 5.4 Q 3.4,5.2375 3.28125,5.11875 3.1625,5 3,5 H 2.2 Q 2.0375,5 1.91875,5.11875 1.8,5.2375 1.8,5.4 V 6.2 Q 1.8,6.3625 1.91875,6.48125 2.0375,6.6 2.2,6.6 H 3 Q 3.1625,6.6 3.28125,6.48125 3.4,6.3625 3.4,6.2 z M 9.8,11 V 7.8 Q 9.8,7.6375 9.68125,7.51875 9.5625,7.4 9.4,7.4 H 4.6 Q 4.4375,7.4 4.31875,7.51875 4.2,7.6375 4.2,7.8 V 11 q 0,0.1625 0.11875,0.28125 Q 4.4375,11.4 4.6,11.4 h 4.8 q 0.1625,0 0.28125,-0.11875 Q 9.8,11.1625 9.8,11 z M 3.4,3.8 V 3 Q 3.4,2.8375 3.28125,2.71875 3.1625,2.6 3,2.6 H 2.2 Q 2.0375,2.6 1.91875,2.71875 1.8,2.8375 1.8,3 V 3.8 Q 1.8,3.9625 1.91875,4.08125 2.0375,4.2 2.2,4.2 H 3 Q 3.1625,4.2 3.28125,4.08125 3.4,3.9625 3.4,3.8 z M 12.2,11 V 10.2 Q 12.2,10.0375 12.08125,9.91875 11.9625,9.8 11.8,9.8 H 11 Q 10.8375,9.8 10.71875,9.91875 10.6,10.0375 10.6,10.2 V 11 q 0,0.1625 0.11875,0.28125 Q 10.8375,11.4 11,11.4 h 0.8 q 0.1625,0 0.28125,-0.11875 Q 12.2,11.1625 12.2,11 z M 9.8,6.2 V 3 Q 9.8,2.8375 9.68125,2.71875 9.5625,2.6 9.4,2.6 H 4.6 Q 4.4375,2.6 4.31875,2.71875 4.2,2.8375 4.2,3 V 6.2 Q 4.2,6.3625 4.31875,6.48125 4.4375,6.6 4.6,6.6 H 9.4 Q 9.5625,6.6 9.68125,6.48125 9.8,6.3625 9.8,6.2 z m 2.4,2.4 V 7.8 Q 12.2,7.6375 12.08125,7.51875 11.9625,7.4 11.8,7.4 H 11 Q 10.8375,7.4 10.71875,7.51875 10.6,7.6375 10.6,7.8 v 0.8 q 0,0.1625 0.11875,0.28125 Q 10.8375,9 11,9 h 0.8 Q 11.9625,9 12.08125,8.88125 12.2,8.7625 12.2,8.6 z m 0,-2.4 V 5.4 Q 12.2,5.2375 12.08125,5.11875 11.9625,5 11.8,5 H 11 Q 10.8375,5 10.71875,5.11875 10.6,5.2375 10.6,5.4 v 0.8 q 0,0.1625 0.11875,0.28125 Q 10.8375,6.6 11,6.6 h 0.8 q 0.1625,0 0.28125,-0.11875 Q 12.2,6.3625 12.2,6.2 z m 0,-2.4 V 3 Q 12.2,2.8375 12.08125,2.71875 11.9625,2.6 11.8,2.6 H 11 Q 10.8375,2.6 10.71875,2.71875 10.6,2.8375 10.6,3 v 0.8 q 0,0.1625 0.11875,0.28125 Q 10.8375,4.2 11,4.2 h 0.8 q 0.1625,0 0.28125,-0.11875 Q 12.2,3.9625 12.2,3.8 z m 0.8,-1 v 8.4 q 0,0.4125 -0.29375,0.70625 Q 12.4125,12.2 12,12.2 H 2 Q 1.5875,12.2 1.29375,11.90625 1,11.6125 1,11.2 V 2.8 Q 1,2.3875 1.29375,2.09375 1.5875,1.8 2,1.8 h 10 q 0.4125,0 0.70625,0.29375 Q 13,2.3875 13,2.8 z"/></svg>