<svg xmlns="http://www.w3.org/2000/svg" id="libre-file-pdf" viewBox="0 0 14 14"><path d="M 4.234349,9.6879554 C 4.4938196,9.4431464 4.9332679,9.2025734 5.5411662,8.9723137 5.8161804,8.4287305 6.0893538,7.8296366 6.3047315,7.2976563 6.1230948,6.9183603 6.005958,6.5183992 5.956119,6.1067981 5.769105,4.5611761 7.5191644,4.6760298 7.2529534,6.1156781 7.2019354,6.3915766 7.0800472,6.7787926 6.8903069,7.2680799 7.1658742,7.758509 7.5273418,8.1278228 7.8152859,8.3720059 8.2090215,8.3091279 8.7691072,8.244371 9.1633588,8.3022399 c 1.0477512,0.153936 0.9146642,1.3077747 -0.016098,1.3077747 -0.4870406,0 -1.0968907,-0.379554 -1.4787289,-0.6715131 -0.5848385,0.1074861 -1.210123,0.2730991 -1.7479227,0.4630231 -0.171654,0.33071 -0.402282,0.7514464 -0.6077507,1.0474584 -0.8573489,1.23565 -1.987318,0.09633 -1.0785101,-0.7610244 z m 0.8991575,0.04225 C 4.9438399,9.8258694 4.6766714,9.9905614 4.5326072,10.149139 4.309457,10.394795 4.4563574,10.588035 4.7258834,10.324292 4.8586021,10.194373 5.0196475,9.9550154 5.1335065,9.7302074 Z M 8.4641816,8.8287301 C 8.6403296,8.9477089 8.882266,9.0715504 9.1473352,9.0765964 9.4566069,9.0823564 9.4301955,8.8807051 9.0858562,8.8301293 8.9359726,8.8080673 8.7198946,8.8076953 8.4641816,8.8287493 Z M 6.2533085,8.7330307 C 6.4994075,8.6508139 7.0300978,8.5273405 7.1631112,8.4961777 7.1487832,8.4809257 6.7671287,8.0884076 6.6416663,7.871888 6.5415473,8.1240278 6.2604179,8.7177811 6.2533085,8.7330307 Z M 6.4893881,5.7453683 C 6.4464761,5.9664557 6.5108261,6.3222508 6.5861181,6.540502 6.6709141,6.3628804 6.7768161,5.9360297 6.7337925,5.7268769 6.6908445,5.5180559 6.5365005,5.5026953 6.4893879,5.7453689 Z M 7.640148,1.26517 C 7.49432,1.11934 7.20625,1 7,1 L 2.5,1 C 2.29375,1 2.125,1.16875 2.125,1.375 l 0,11.25 C 2.125,12.83125 2.29375,13 2.5,13 l 9,0 c 0.20625,0 0.375,-0.16875 0.375,-0.375 l 0,-6.75 c 0,-0.20625 -0.11932,-0.49432 -0.265148,-0.64015 L 7.640148,1.26517 Z M 11.125,12.25 l -8.25,0 0,-10.5 4.115133,0 c 0.03417,0.006 0.09853,0.0323 0.12668,0.0525 l 3.955734,3.95571 c 0.02018,0.0281 0.04683,0.0925 0.05245,0.12668 l 0,6.36513 z M 11.5,1 9.25,1 C 9.04375,1 8.99432,1.11932 9.140148,1.26515 l 2.46968,2.46968 C 11.75568,3.88068 11.875,3.83125 11.875,3.625 l 0,-2.25 C 11.875,1.16875 11.70625,1 11.5,1 Z"/></svg>