<svg xmlns="http://www.w3.org/2000/svg" id="libre-folder-video" viewBox="0 0 14 14"><path d="M 2.6152344 1.9238281 C 2.1729297 1.9238281 1.7938698 2.0811242 1.4765625 2.3984375 C 1.1592545 2.7157442 1 3.0967558 1 3.5390625 L 1 10.460938 C 1 10.903244 1.1592545 11.284256 1.4765625 11.601562 C 1.7938698 11.918869 2.1729297 12.076172 2.6152344 12.076172 L 11.384766 12.076172 C 11.827072 12.076172 12.206131 11.918869 12.523438 11.601562 C 12.840744 11.284256 13 10.903244 13 10.460938 L 13 5.3847656 C 13 4.942459 12.840744 4.5634004 12.523438 4.2460938 C 12.206131 3.9287871 11.827072 3.7695312 11.384766 3.7695312 L 6.5390625 3.7695312 L 6.5390625 3.5390625 C 6.5390625 3.0967558 6.3798067 2.7157442 6.0625 2.3984375 C 5.7451933 2.0811242 5.3661348 1.9238281 4.9238281 1.9238281 L 2.6152344 1.9238281 z M 4.5214844 4.6738281 L 6.7714844 4.6738281 C 6.8746094 4.6738281 7.0188829 4.7337256 7.0917969 4.8066406 L 9.078125 6.7910156 C 9.151039 6.8639306 9.2089844 7.0082031 9.2089844 7.1113281 L 9.2089844 10.486328 C 9.2089844 10.589458 9.1246094 10.673828 9.0214844 10.673828 L 4.5214844 10.673828 C 4.4183544 10.673828 4.3339844 10.589453 4.3339844 10.486328 L 4.3339844 4.8613281 C 4.3339844 4.7582031 4.4183594 4.6738281 4.5214844 4.6738281 z M 7.8964844 4.6738281 L 9.0214844 4.6738281 C 9.1246094 4.6738281 9.2089844 4.7582031 9.2089844 4.8613281 L 9.2089844 5.9863281 C 9.2089844 6.0894531 9.151051 6.1139406 9.078125 6.0410156 L 7.8417969 4.8066406 C 7.7688829 4.7337256 7.7933594 4.6738281 7.8964844 4.6738281 z M 4.7089844 5.0488281 L 4.7089844 10.298828 L 8.8339844 10.298828 L 8.8339844 7.1171875 C 8.8311744 7.1000975 8.8186837 7.0667844 8.8085938 7.0527344 L 6.8300781 5.0761719 C 6.8160031 5.0660719 6.7846631 5.0518281 6.7675781 5.0488281 L 4.7089844 5.0488281 z M 5.2714844 7.0175781 L 5.6542969 7.0175781 L 5.6542969 7.3457031 L 5.2714844 7.3457031 L 5.2714844 7.0175781 z M 5.9980469 7.0175781 L 7.546875 7.0175781 L 7.546875 8.1621094 L 5.9980469 8.1621094 L 5.9980469 7.0175781 z M 7.890625 7.0175781 L 8.2714844 7.0175781 L 8.2714844 7.3457031 L 7.890625 7.3457031 L 7.890625 7.0175781 z M 5.2714844 7.5898438 L 5.6542969 7.5898438 L 5.6542969 7.9179688 L 5.2714844 7.9179688 L 5.2714844 7.5898438 z M 7.890625 7.5898438 L 8.2714844 7.5898438 L 8.2714844 7.9179688 L 7.890625 7.9179688 L 7.890625 7.5898438 z M 5.2714844 8.1601562 L 5.6542969 8.1601562 L 5.6542969 8.4882812 L 5.2714844 8.4882812 L 5.2714844 8.1601562 z M 7.890625 8.1601562 L 8.2714844 8.1601562 L 8.2714844 8.4882812 L 7.890625 8.4882812 L 7.890625 8.1601562 z M 5.9980469 8.4902344 L 7.546875 8.4902344 L 7.546875 9.6347656 L 5.9980469 9.6347656 L 5.9980469 8.4902344 z M 5.2714844 8.734375 L 5.6542969 8.734375 L 5.6542969 9.0625 L 5.2714844 9.0625 L 5.2714844 8.734375 z M 7.890625 8.734375 L 8.2714844 8.734375 L 8.2714844 9.0625 L 7.890625 9.0625 L 7.890625 8.734375 z M 5.2714844 9.3066406 L 5.6542969 9.3066406 L 5.6542969 9.6347656 L 5.2714844 9.6347656 L 5.2714844 9.3066406 z M 7.890625 9.3066406 L 8.2714844 9.3066406 L 8.2714844 9.6347656 L 7.890625 9.6347656 L 7.890625 9.3066406 z "/></svg>