<svg xmlns="http://www.w3.org/2000/svg" id="libre-resize-full" viewBox="0 0 14 14"><path d="M 12.851703,1.14844 C 12.752843,1.04944 12.635563,1 12.500164,1 L 9.0001119,1 c -0.135399,0 -0.252483,0.0495 -0.35154,0.14844 -0.09886,0.099 -0.148344,0.21614 -0.148344,0.35154 0,0.1354 0.04948,0.25268 0.148344,0.35154 l 1.124908,1.125 -2.593779,2.59378 c -0.05207,0.0522 -0.07815,0.112 -0.07815,0.1797 0,0.0677 0.02608,0.12763 0.07815,0.1797 l 0.890644,0.89065 c 0.05207,0.0521 0.111905,0.0781 0.179701,0.0781 0.0677,0 0.127536,-0.026 0.179605,-0.0781 l 2.5938751,-2.59378 1.124811,1.12491 c 0.09906,0.099 0.216332,0.14853 0.351731,0.14853 0.135399,0 0.252579,-0.0496 0.351539,-0.14853 0.09887,-0.0989 0.148345,-0.21614 0.148345,-0.35154 l 0,-3.50006 c 9.6e-5,-0.13549 -0.0491,-0.25248 -0.148249,-0.35144 z M 5.9298469,7.17956 c -0.05207,-0.0521 -0.112001,-0.0781 -0.179701,-0.0781 -0.0677,0 -0.127632,0.026 -0.179701,0.0781 l -2.593779,2.59378 -1.125003,-1.1251 c -0.09896,-0.0988 -0.216044,-0.14835 -0.351539,-0.14835 -0.135495,0 -0.252675,0.0496 -0.351635,0.14835 -0.09896,0.099 -0.148441,0.21633 -0.148441,0.35173 l 0,3.50005 c 0,0.1354 0.04948,0.25258 0.148441,0.35154 C 1.2475489,12.95046 1.3647249,13 1.5001239,13 l 3.500052,0 c 0.135399,0 0.252579,-0.0496 0.351539,-0.14844 0.09896,-0.099 0.148441,-0.21614 0.148441,-0.35154 0,-0.1354 -0.04948,-0.25268 -0.148441,-0.35173 L 4.2267119,11.02348 6.8204909,8.4296 c 0.05207,-0.0521 0.07805,-0.1119 0.07805,-0.1797 0,-0.0677 -0.02608,-0.12753 -0.07805,-0.1797 L 5.9298469,7.17956 Z"/></svg>