<svg xmlns="http://www.w3.org/2000/svg" id="libre-edit" viewBox="0 0 14 14"><path d="M 6.97309,9.367715 7.75336,8.587445 6.73094,7.565025 5.95067,8.345295 v 0.37668 h 0.64574 v 0.64574 h 0.37668 z m 2.95965,-4.84305 q -0.10763,-0.10763 -0.22198,0.007 L 7.3565,6.885925 q -0.11435,0.11435 -0.007,0.22198 0.10762,0.10762 0.22197,-0.007 l 2.35426,-2.35426 q 0.11435,-0.11435 0.007,-0.22197 z m 0.53811,3.99551 v 1.27803 q 0,0.80045 -0.56838,1.36883 -0.56839,0.56839 -1.36884,0.56839 H 2.93722 q -0.80045,0 -1.368834,-0.56839 Q 1,10.598655 1,9.798205 V 4.201795 Q 1,3.401345 1.568386,2.832955 2.13677,2.264575 2.93722,2.264575 h 5.59641 q 0.42377,0 0.787,0.16816 0.10089,0.0471 0.12107,0.15471 0.0202,0.11435 -0.0605,0.19507 l -0.3296,0.32959 q -0.0942,0.0942 -0.21525,0.0538 -0.15471,-0.0404 -0.30269,-0.0404 H 2.93725 q -0.44395,0 -0.76009,0.31615 -0.316143,0.31614 -0.316143,0.76009 v 5.59641 q 0,0.44395 0.316143,0.76009 0.31614,0.31614 0.76009,0.31614 h 5.59641 q 0.44395,0 0.76009,-0.31614 0.31615,-0.31614 0.31615,-0.76009 v -0.84753 q 0,-0.0874 0.0605,-0.14799 l 0.4305,-0.43049 q 0.10089,-0.1009 0.23542,-0.0471 0.13453,0.0538 0.13453,0.19506 z m -0.64574,-4.96412 1.93722,1.93722 -4.52018,4.52018 H 5.30493 v -1.93722 z m 2.98655,0.88789 -0.61884,0.61883 -1.93721,-1.93722 0.61883,-0.61883 q 0.18834,-0.18834 0.4574,-0.18834 0.26906,0 0.4574,0.18834 l 1.02242,1.02242 Q 13,3.717485 13,3.986545 q 0,0.26906 -0.18834,0.4574 z"/></svg>