<svg xmlns="http://www.w3.org/2000/svg" id="libre-folder-picture" viewBox="0 0 14 14"><path d="M 2.6152344 1.9238281 C 2.1729297 1.9238281 1.7938698 2.0811242 1.4765625 2.3984375 C 1.1592545 2.7157442 1 3.0967558 1 3.5390625 L 1 10.460938 C 1 10.903244 1.1592545 11.284256 1.4765625 11.601562 C 1.7938698 11.918869 2.1729297 12.076172 2.6152344 12.076172 L 11.384766 12.076172 C 11.827072 12.076172 12.206131 11.918869 12.523438 11.601562 C 12.840744 11.284256 13 10.903244 13 10.460938 L 13 5.3847656 C 13 4.942459 12.840744 4.5634004 12.523438 4.2460938 C 12.206131 3.9287871 11.827072 3.7695312 11.384766 3.7695312 L 6.5390625 3.7695312 L 6.5390625 3.5390625 C 6.5390625 3.0967558 6.3798067 2.7157442 6.0625 2.3984375 C 5.7451933 2.0811242 5.3661348 1.9238281 4.9238281 1.9238281 L 2.6152344 1.9238281 z M 4.7167969 4.7128906 L 6.9667969 4.7128906 C 7.0699219 4.7128906 7.2122422 4.7727881 7.2851562 4.8457031 L 9.2714844 6.8300781 C 9.3443984 6.9029931 9.4042969 7.0472656 9.4042969 7.1503906 L 9.4042969 10.525391 C 9.4042969 10.628521 9.3199219 10.712891 9.2167969 10.712891 L 4.7167969 10.712891 C 4.6136669 10.712891 4.5292969 10.628516 4.5292969 10.525391 L 4.5292969 4.9003906 C 4.5292969 4.7972656 4.6136719 4.7128906 4.7167969 4.7128906 z M 8.0917969 4.7128906 L 9.2167969 4.7128906 C 9.3199219 4.7128906 9.4042969 4.7972656 9.4042969 4.9003906 L 9.4042969 6.0253906 C 9.4042969 6.1285156 9.3444104 6.1530031 9.2714844 6.0800781 L 8.0351562 4.8457031 C 7.9622423 4.7727881 7.9886719 4.7128906 8.0917969 4.7128906 z M 4.9042969 5.0878906 L 4.9042969 10.337891 L 9.0292969 10.337891 L 9.0292969 7.1542969 C 9.0264869 7.1372069 9.0120431 7.1058469 9.0019531 7.0917969 L 7.0234375 5.1132812 C 7.0093625 5.1031812 6.9780225 5.0908906 6.9609375 5.0878906 L 4.9042969 5.0878906 z M 5.8925781 7.1289062 C 6.1010769 7.1289062 6.2695312 7.2973435 6.2695312 7.5058594 C 6.2695312 7.7143927 6.101094 7.8828125 5.8925781 7.8828125 C 5.6840619 7.8828125 5.515625 7.7144098 5.515625 7.5058594 C 5.515625 7.2973606 5.6840448 7.1289062 5.8925781 7.1289062 z M 7.4296875 7.5566406 L 8.5039062 9.3886719 L 5.5039062 9.3886719 L 6.4628906 8.0957031 L 6.8046875 8.4453125 L 7.4296875 7.5566406 z "/></svg>