<svg xmlns="http://www.w3.org/2000/svg" id="libre-folder-attachments" viewBox="0 0 14 14"><path d="M 2.6152344 1.9238281 C 2.1729297 1.9238281 1.7938698 2.0811242 1.4765625 2.3984375 C 1.1592545 2.7157442 1 3.0967558 1 3.5390625 L 1 10.460938 C 1 10.903244 1.1592545 11.284256 1.4765625 11.601562 C 1.7938698 11.918869 2.1729297 12.076172 2.6152344 12.076172 L 11.384766 12.076172 C 11.827072 12.076172 12.206131 11.918869 12.523438 11.601562 C 12.840744 11.284256 13 10.903244 13 10.460938 L 13 5.3847656 C 13 4.942459 12.840744 4.5634004 12.523438 4.2460938 C 12.206131 3.9287871 11.827072 3.7695312 11.384766 3.7695312 L 6.5390625 3.7695312 L 6.5390625 3.5390625 C 6.5390625 3.0967558 6.3798067 2.7157442 6.0625 2.3984375 C 5.7451933 2.0811242 5.3661348 1.9238281 4.9238281 1.9238281 L 2.6152344 1.9238281 z M 5.453125 4.7910156 C 5.904555 4.7910156 6.2944769 4.9385637 6.6230469 5.234375 L 9.2167969 7.6132812 C 9.2453635 7.6394579 9.2597656 7.6678041 9.2597656 7.6992188 C 9.2597656 7.7411041 9.2160496 7.8029698 9.1289062 7.8828125 C 9.0417629 7.9626555 8.9754008 8.0019531 8.9296875 8.0019531 C 8.8925442 8.0019531 8.8586481 7.9890673 8.8300781 7.9628906 L 6.2324219 5.5800781 C 6.0067085 5.3785075 5.7484613 5.2773437 5.4570312 5.2773438 C 5.1541746 5.2773438 4.8999763 5.3759306 4.6914062 5.5722656 C 4.4828329 5.7686006 4.3769531 6.0057161 4.3769531 6.2832031 C 4.3769531 6.5580725 4.4859817 6.7932348 4.703125 6.9921875 L 8.0292969 10.044922 C 8.2092969 10.209844 8.416104 10.291016 8.6503906 10.291016 C 8.8332473 10.291016 8.9854687 10.236901 9.1054688 10.126953 C 9.2254687 10.017006 9.2851562 9.8784768 9.2851562 9.7109375 C 9.2851562 9.4962778 9.195625 9.3055467 9.015625 9.140625 L 6.5253906 6.859375 C 6.451104 6.7965477 6.3647215 6.765625 6.2675781 6.765625 C 6.1847215 6.765625 6.1167867 6.7901057 6.0625 6.8398438 C 6.0082167 6.8895818 5.9804687 6.9533802 5.9804688 7.0292969 C 5.9804688 7.1130665 6.016464 7.1890853 6.0878906 7.2597656 L 7.8457031 8.8691406 C 7.8742698 8.8953173 7.8867188 8.9256166 7.8867188 8.9570312 C 7.8867188 8.9989159 7.8424762 9.0594733 7.7539062 9.140625 C 7.6653329 9.221777 7.5984477 9.2617187 7.5527344 9.2617188 C 7.5184477 9.2617188 7.4875544 9.2488329 7.4589844 9.2226562 L 5.7011719 7.6132812 C 5.5211719 7.4535953 5.4316406 7.2596632 5.4316406 7.0292969 C 5.4316406 6.8146372 5.5129212 6.6316365 5.6757812 6.4824219 C 5.8386379 6.3332072 6.037201 6.2578125 6.2714844 6.2578125 C 6.5229144 6.2578125 6.7358696 6.340938 6.9101562 6.5058594 L 9.4003906 8.7871094 C 9.6861106 9.043651 9.828125 9.3522988 9.828125 9.7109375 C 9.828125 10.01722 9.7159477 10.273663 9.4902344 10.480469 C 9.2645177 10.687275 8.984674 10.791016 8.6503906 10.791016 C 8.264674 10.791016 7.9282915 10.658264 7.6425781 10.396484 L 4.3125 7.3496094 C 3.989643 7.048562 3.828125 6.695486 3.828125 6.2871094 C 3.828125 5.8708787 3.9864956 5.5171382 4.3007812 5.2265625 C 4.6150656 4.9359865 4.9988383 4.7910156 5.453125 4.7910156 z "/></svg>