<svg xmlns="http://www.w3.org/2000/svg" id="libre-folder-backup" viewBox="0 0 14 14"><path d="M 2.6152344 1.9238281 C 2.1729297 1.9238281 1.7938698 2.0811242 1.4765625 2.3984375 C 1.1592545 2.7157442 1 3.0967558 1 3.5390625 L 1 10.460938 C 1 10.903244 1.1592545 11.284256 1.4765625 11.601562 C 1.7938698 11.918869 2.1729297 12.076172 2.6152344 12.076172 L 11.384766 12.076172 C 11.827072 12.076172 12.206131 11.918869 12.523438 11.601562 C 12.840744 11.284256 13 10.903244 13 10.460938 L 13 5.3847656 C 13 4.942459 12.840744 4.5634004 12.523438 4.2460938 C 12.206131 3.9287871 11.827072 3.7695312 11.384766 3.7695312 L 6.5390625 3.7695312 L 6.5390625 3.5390625 C 6.5390625 3.0967558 6.3798067 2.7157442 6.0625 2.3984375 C 5.7451933 2.0811242 5.3661348 1.9238281 4.9238281 1.9238281 L 2.6152344 1.9238281 z M 4.1757812 4.8671875 L 9.7148438 4.8671875 C 9.7773438 4.8671875 9.8312798 4.8919269 9.8769531 4.9414062 C 9.9226265 4.9908856 9.9453125 5.0494792 9.9453125 5.1171875 L 9.9453125 6.1171875 C 9.9453125 6.1848958 9.9226265 6.2434894 9.8769531 6.2929688 C 9.8312798 6.3424481 9.7773438 6.3671875 9.7148438 6.3671875 L 4.1757812 6.3671875 C 4.1132813 6.3671875 4.0593449 6.3424481 4.0136719 6.2929688 C 3.9679985 6.2434894 3.9453125 6.1848959 3.9453125 6.1171875 L 3.9453125 5.1171875 C 3.9453125 5.0494792 3.9679985 4.9908856 4.0136719 4.9414062 C 4.0593445 4.8919269 4.1132809 4.8671875 4.1757812 4.8671875 z M 4.40625 6.6171875 L 9.484375 6.6171875 C 9.546875 6.6171875 9.600811 6.6419276 9.6464844 6.6914062 C 9.6921577 6.7408856 9.7148438 6.7994792 9.7148438 6.8671875 L 9.7148438 10.617188 C 9.7148438 10.684895 9.6921577 10.743489 9.6464844 10.792969 C 9.600811 10.842449 9.546875 10.867188 9.484375 10.867188 L 4.40625 10.867188 C 4.34375 10.867188 4.2898136 10.842449 4.2441406 10.792969 C 4.1984673 10.743489 4.1757812 10.684895 4.1757812 10.617188 L 4.1757812 6.8671875 C 4.1757812 6.7994792 4.1984673 6.7408856 4.2441406 6.6914062 C 4.289814 6.6419276 4.3437503 6.6171875 4.40625 6.6171875 z M 6.484375 7.3671875 C 6.421875 7.3671875 6.367939 7.3919276 6.3222656 7.4414062 C 6.2765923 7.4908856 6.2519531 7.5494792 6.2519531 7.6171875 C 6.2519531 7.6848958 6.2765923 7.7434894 6.3222656 7.7929688 C 6.367939 7.8424474 6.421875 7.8671875 6.484375 7.8671875 L 7.40625 7.8671875 C 7.46875 7.8671875 7.522686 7.8424474 7.5683594 7.7929688 C 7.6140327 7.7434894 7.6367188 7.6848958 7.6367188 7.6171875 C 7.6367188 7.5494792 7.6140327 7.4908856 7.5683594 7.4414062 C 7.522686 7.3919276 7.46875 7.3671875 7.40625 7.3671875 L 6.484375 7.3671875 z "/></svg>