<svg xmlns="http://www.w3.org/2000/svg" id="libre-file-archive" viewBox="0 0 14 14"><path d="m 6.9097788,3.630751 0,-0.857143 -0.85714,0 0,0.857143 z m 0.85715,0.857142 0,-0.857142 -0.85715,0 0,0.857142 z m -0.85715,0.857143 0,-0.857143 -0.85714,0 0,0.857143 z m 0.85715,0.857143 0,-0.857143 -0.85715,0 0,0.857143 z m -0.85715,-3.428571 c -4.0952367,7.523809 -2.0476183,3.7619047 0,0 z m 0.9442,4.600446 0.71652,2.337054 c 0.035733,0.1205353 0.0536,0.2366067 0.0536,0.348214 0,0.370536 -0.16183,0.677456 -0.48549,0.920759 -0.32366,0.243303 -0.73326,0.364955 -1.2288,0.364955 -0.4955333,0 -0.90513,-0.121652 -1.22879,-0.364955 -0.32366,-0.243303 -0.48549,-0.550223 -0.48549,-0.920759 0,-0.1116073 0.017867,-0.2276787 0.0536,-0.348214 0.093753,-0.28125 0.36161,-1.1651787 0.80357,-2.651786 l 0,-0.857143 0.85714,0 0,0.857143 0.52902,0 c 0.098213,0 0.1852667,0.029017 0.26116,0.08705 0.075893,0.058033 0.1272333,0.133926 0.15402,0.227678 z m -0.9442,3.113839 c 0.2366133,0 0.4386233,-0.04241 0.60603,-0.127232 0.1674133,-0.08482 0.25112,-0.185268 0.25112,-0.301339 0,-0.1160713 -0.083707,-0.2165177 -0.25112,-0.301339 -0.1674067,-0.084821 -0.3694167,-0.127232 -0.60603,-0.127232 -0.2366067,0 -0.4386133,0.042411 -0.60602,0.127232 -0.1674133,0.084821 -0.25112,0.1852677 -0.25112,0.301339 0,0.116071 0.083707,0.216518 0.25112,0.301339 0.1674067,0.08482 0.3694133,0.127232 0.60602,0.127232 z M 7.640148,1.26517 C 7.49432,1.11934 7.20625,1 7,1 L 2.5,1 C 2.29375,1 2.125,1.16875 2.125,1.375 l 0,11.25 C 2.125,12.83125 2.29375,13 2.5,13 l 9,0 c 0.20625,0 0.375,-0.16875 0.375,-0.375 l 0,-6.75 c 0,-0.20625 -0.11932,-0.49432 -0.265148,-0.64015 L 7.640148,1.26517 Z M 11.125,12.25 l -8.25,0 0,-10.5 4.115133,0 c 0.03417,0.006 0.09853,0.0323 0.12668,0.0525 l 3.955734,3.95571 c 0.02018,0.0281 0.04683,0.0925 0.05245,0.12668 l 0,6.36513 z M 11.5,1 9.25,1 C 9.04375,1 8.99432,1.11932 9.140148,1.26515 l 2.46968,2.46968 C 11.75568,3.88068 11.875,3.83125 11.875,3.625 l 0,-2.25 C 11.875,1.16875 11.70625,1 11.5,1 Z" /></svg>