<svg xmlns="http://www.w3.org/2000/svg" id="libre-download" viewBox="0 0 14 14"><path d="m 8.9413345,5.52359 1.6529415,0 -3.5943485,3.60044 -3.594233,-3.60044 1.652941,0 0,-4.52359 3.882729,0 0,4.52359 z m -6.870553,4.3549 0,3.12151 9.8584365,0 0,-3.12151 -9.8584365,0 z m 1.603136,1.99765 -0.436893,0 0,-0.87379 0.436893,0 0,0.87379 z m 0.793689,0 -0.436893,0 0,-0.87379 0.436893,0 0,0.87379 z m 0.771845,0 -0.436893,0 0,-0.87379 0.436893,0 0,0.87379 z m 5.1068145,0.0728 c -0.281503,0 -0.5097075,-0.2282 -0.5097075,-0.50971 0,-0.2815 0.2282045,-0.50971 0.5097075,-0.50971 0.281505,0 0.50971,0.22821 0.50971,0.50971 0,0.28151 -0.228205,0.50971 -0.50971,0.50971 z"/></svg>