<?xml version="1.0" standalone="no"?>
<!DOCTYPE svg PUBLIC "-//W3C//DTD SVG 1.1//EN" "http://www.w3.org/Graphics/SVG/1.1/DTD/svg11.dtd">
<svg xmlns="http://www.w3.org/2000/svg">
<defs>
<font id="icons" horiz-adv-x="1000" >
<font-face font-family="icons" font-weight="400" font-stretch="normal" units-per-em="1000" ascent="850" descent="-150" />
<missing-glyph horiz-adv-x="1000" />
<glyph glyph-name="forward" unicode="&#xe800;" d="M500 683l-59-59 233-232h-507v-84h507l-233-232 59-59 333 333z" horiz-adv-x="1000" />

<glyph glyph-name="settings" unicode="&#xe801;" d="M810 309c1 14 3 27 3 41s-2 27-3 41l88 69c8 6 10 17 5 26l-84 145c-5 9-16 12-25 9l-104-42c-21 16-45 30-70 41l-16 110c-2 10-10 18-21 18h-166c-11 0-19-8-21-18l-16-110c-25-11-48-25-70-41l-104 42c-9 3-20 0-25-9l-83-145c-6-9-3-20 5-26l87-69c-1-14-2-27-2-41s1-27 2-41l-87-69c-8-6-11-17-5-26l83-145c5-9 16-12 25-9l104 42c22-16 45-30 70-41l16-110c2-10 10-18 21-18h166c11 0 19 8 21 18l16 110c25 11 49 25 70 41l104-42c9-3 20 0 25 9l84 145c5 9 2 20-5 26l-88 69z m-310-105c-81 0-146 65-146 146s65 146 146 146 146-65 146-146-65-146-146-146z" horiz-adv-x="1000" />

<glyph glyph-name="pin" unicode="&#xe802;" d="M667 350v333h41v84h-416v-84h41v-333l-83-83v-84h217v-250h66v250h217v84l-83 83z" horiz-adv-x="1000" />

<glyph glyph-name="getfile" unicode="&#xe803;" d="M271 767l500-467-242-21 138-304-92-42-133 309-171-163v688" horiz-adv-x="1000" />

<glyph glyph-name="hdd" unicode="&#xe804;" d="M167 767l-84-500h834l-84 500h-666z m-84-542v-292h834v292h-834z m84-83h41v-84h42v84h42v-84h41v84h42v-84h42v84h41v-84h42v84h42v-84h41v84h42v-84-41h-42-41-42-42-41-42-42-41-42-42-41v41 84z m604 0c35 0 62-27 62-63s-27-62-62-62-63 27-63 62 27 63 63 63z" horiz-adv-x="1000" />

<glyph glyph-name="home" unicode="&#xe805;" d="M417 17v250h166v-250h209v333h125l-417 375-417-375h125v-333z" horiz-adv-x="1000" />

<glyph glyph-name="chmod" unicode="&#xe806;" d="M381 302l-298 83 55 167 291-119-19 334h186l-19-334 286 113 54-173-298-83 196-250-148-107-173 273-167-262-148 102 202 256z" horiz-adv-x="1000" />

<glyph glyph-name="info" unicode="&#xe807;" d="M458 142h84v250h-84v-250z m42 625c-230 0-417-187-417-417s187-417 417-417 417 187 417 417-187 417-417 417z m0-750c-184 0-333 149-333 333s149 333 333 333 333-149 333-333-149-333-333-333z m-42 458h84v83h-84v-83z" horiz-adv-x="1000" />

<glyph glyph-name="link" unicode="&#xe808;" d="M163 350c0 71 57 129 129 129h166v79h-166c-115 0-209-93-209-208s94-208 209-208h166v79h-166c-72 0-129 58-129 129z m170-42h334v84h-334v-84z m375 250h-166v-79h166c72 0 130-58 130-129s-58-129-130-129h-166v-79h166c115 0 209 93 209 208s-94 208-209 208z" horiz-adv-x="1000" />

<glyph glyph-name="menu" unicode="&#xe809;" d="M125 100h750v83h-750v-83z m0 208h750v84h-750v-84z m0 292v-83h750v83h-750z" horiz-adv-x="1000" />

<glyph glyph-name="minus" unicode="&#xe80a;" d="M792 308h-584v84h584v-84z" horiz-adv-x="1000" />

<glyph glyph-name="mkdir" unicode="&#xe80b;" d="M833 600h-333l-83 83h-250c-46 0-83-37-83-83l-1-500c0-46 38-83 84-83h666c46 0 84 37 84 83v417c0 46-38 83-84 83z m-41-333h-125v-125h-84v125h-125v83h125v125h84v-125h125v-83z" horiz-adv-x="1000" />

<glyph glyph-name="mkfile" unicode="&#xe80c;" d="M542 475h229l-229 229v-229m-292 292h333l250-250v-500c0-46-37-84-83-84h-500c-46 0-83 38-83 84v666c0 46 37 84 83 84m208-542v125h-83v-125h-125v-83h125v-125h83v125h125v83h-125z" horiz-adv-x="1000" />

<glyph glyph-name="netmount" unicode="&#xe80d;" d="M708 746c46 0 84-38 84-83v-417c0-46-38-83-84-83h-166v-84h41c23 0 42-19 42-41h292v-84h-292c0-23-19-42-42-42h-166c-23 0-42 19-42 42h-292v84h292c0 22 19 41 42 41h41v84h-166c-46 0-84 37-84 83v417c0 45 38 83 84 83h416z" horiz-adv-x="1000" />

<glyph glyph-name="netunmount" unicode="&#xe80e;" d="M917 342c4 229-179 421-409 425-231 4-420-179-425-409-4-229 180-421 409-425s421 180 425 409z m-750 14c4 184 156 332 339 327 77-2 148-29 202-73l-475-458c-43 56-68 127-66 204z m125-266l475 458c43-56 68-129 66-206-4-184-154-332-339-327-77 4-148 31-202 75z" horiz-adv-x="1000" />

<glyph glyph-name="opendir" unicode="&#xe80f;" d="M833 600h-333l-83 83h-250c-46 0-83-37-83-83l-1-500c0-46 38-83 84-83h666c46 0 84 37 84 83v417c0 46-38 83-84 83z m0-500h-666v417h666v-417z" horiz-adv-x="1000" />

<glyph glyph-name="paste" unicode="&#xe810;" d="M792 767h-175c-17 48-63 83-117 83s-100-35-117-83h-175c-46 0-83-38-83-84v-666c0-46 37-84 83-84h584c46 0 83 38 83 84v666c0 46-37 84-83 84z m-292 0c23 0 42-19 42-42s-19-42-42-42-42 19-42 42 19 42 42 42z m292-750h-584v666h84v-125h416v125h84v-666z" horiz-adv-x="1000" />

<glyph glyph-name="lock" unicode="&#xe811;" d="M500 142c46 0 83 37 83 83s-37 83-83 83-83-37-83-83 37-83 83-83z m250 375h-42v83c0 115-93 208-208 208s-208-93-208-208v-83h-42c-46 0-83-38-83-84v-416c0-46 37-84 83-84h500c46 0 83 38 83 84v416c0 46-37 84-83 84z m-379 83c0 71 58 129 129 129s129-58 129-129v-83h-258v83z m379-583h-500v416h500v-416z" horiz-adv-x="1000" />

<glyph glyph-name="places" unicode="&#xe812;" d="M750 767h-500c-46 0-83-38-83-84v-666c0-46 37-84 83-84h500c46 0 83 38 83 84v666c0 46-37 84-83 84z m-500-84h208v-333l-104 63-104-63v333z" horiz-adv-x="1000" />

<glyph glyph-name="plus" unicode="&#xe813;" d="M792 308h-250v-250h-84v250h-250v84h250v250h84v-250h250v-84z" horiz-adv-x="1000" />

<glyph glyph-name="quicklook" unicode="&#xe814;" d="M500 663c-208 0-386-130-458-313 72-183 250-312 458-312s386 129 458 312c-72 183-249 313-458 313z m0-521c-115 0-208 93-208 208s93 208 208 208 208-93 208-208-93-208-208-208z m0 333c-69 0-125-56-125-125s56-125 125-125 125 56 125 125-56 125-125 125z" horiz-adv-x="1000" />

<glyph glyph-name="loading" unicode="&#xe815;" d="M500 600v-125l167 167-167 166v-125c-184 0-333-149-333-333 0-65 19-126 51-177l61 60c-18 35-29 75-29 117 0 138 112 250 250 250z m282-72l-61-61c18-35 29-75 29-117 0-138-112-250-250-250v125l-167-167 167-166v125c184 0 333 149 333 333 0 65-19 126-51 178z" horiz-adv-x="1000" />

<glyph glyph-name="rename" unicode="&#xe816;" d="M500 725v-83h83c23 0 42-19 42-42v-500c0-23-19-42-42-42h-83v-83h83c32 0 61 12 84 33 23-21 52-33 83-33h83v83h-83c-23 0-42 19-42 42v42h167 42v41 334 41h-42-167v42c0 23 19 42 42 42h83v83h-83c-31 0-60-12-83-33-23 21-52 33-84 33h-83z m-417-167v-41-334-41h42 375v83h-333v250h333v83h-375-42z m625-83h125v-250h-125v250z m-458-83v-84h208v84h-208z" horiz-adv-x="1000" />

<glyph glyph-name="resize" unicode="&#xe817;" d="M167 767c-46 0-84-38-84-84v-41h84v41h41v84h-41z m125 0v-84h83v84h-83z m166 0v-84h84v84h-84z m167 0v-84h83v84h-83z m167 0v-84h41v-41h84v41c0 46-38 84-84 84h-41z m-709-209v-83h84v83h-84z m750 0v-83h84v83h-84z m-500-41v-84h192l-210-208h-232v-83-125c0-46 38-84 84-84h208v84 148l208 210v-192h84v292 42h-42-292z m-250-125v-84h84v84h-84z m750 0v-84h84v84h-84z m0-167v-83h84v83h-84z m0-167v-41h-41v-84h41c46 0 84 38 84 84v41h-84z m-375-41v-84h84v84h-84z m167 0v-84h83v84h-83z" horiz-adv-x="1000" />

<glyph glyph-name="return" unicode="&#xe818;" d="M521 517c-110 0-211-41-288-109l-150 150v-375h375l-150 151c57 49 131 79 213 79 148 0 273-96 316-230l99 33c-57 174-221 301-415 301z" horiz-adv-x="1000" />

<glyph glyph-name="rm" unicode="&#xe819;" d="M223 25c0-52 42-92 92-92h370c53 0 92 42 92 92v556h-554v-556z m602 696h-162l-46 46h-234l-45-46h-163v-92h648v92z" horiz-adv-x="1000" />

<glyph glyph-name="rotate-l" unicode="&#xe81a;" d="M296 495l-59 59c-37-49-60-104-67-162h84c6 36 20 71 42 103z m-42-187h-84c7-58 30-113 67-162l59 59c-22 32-36 67-42 103z m42-221c48-38 104-60 162-67v84c-36 6-71 20-102 43l-60-60z m246 593v128l-190-189 190-186v163c118-19 208-122 208-246s-90-226-208-246v-84c164 20 291 160 291 330s-127 310-291 330z" horiz-adv-x="1000" />

<glyph glyph-name="rotate-r" unicode="&#xe81b;" d="M648 619l-190 189v-128c-164-20-291-160-291-330s127-310 291-330v84c-118 20-208 122-208 246s90 227 208 246v-163l190 186z m182-227c-7 58-30 113-67 162l-59-59c22-32 36-67 42-103h84z m-288-288v-84c58 7 114 29 162 67l-60 60c-31-23-66-37-102-43z m162 101l59-59c37 49 60 104 67 162h-84c-6-36-20-71-42-103z" horiz-adv-x="1000" />

<glyph glyph-name="search" unicode="&#xe81c;" d="M646 267h-33l-12 11c41 47 66 109 66 176 0 150-122 271-271 271s-271-121-271-271 121-271 271-271c67 0 129 25 176 66l11-12v-33l209-208 62 62-208 209z m-250 0c-104 0-188 84-188 187s84 188 188 188 187-84 187-188-84-187-187-187z" horiz-adv-x="1000" />

<glyph glyph-name="sort" unicode="&#xe81d;" d="M392 635l131 132 131-132h-262m264-570l-133-132-131 132h264m-279 191h-117l-31-110h-96l125 406h123l127-406h-100l-31 110m-104 67h92l-25 85-11 40-10 40h-2l-9-40-10-40-25-85m273-177v52l194 275v2h-175v77h293v-54l-189-271v-2h191v-77h-314z" horiz-adv-x="1000" />

<glyph glyph-name="sql" unicode="&#xe81e;" d="M500 767c-85 0-162-15-223-40-29-12-56-27-75-48s-35-48-35-79v-333-167c0-31 14-58 35-79s46-38 75-50c61-23 138-38 223-38s163 15 223 40c29 12 56 29 75 50s35 46 35 77v167 333c0 31-14 58-35 79s-46 36-75 48c-60 25-138 40-223 40z m0-84c75 0 144-14 190-33 23-10 39-21 50-29s10-17 10-21 0-10-10-19-27-21-50-29c-46-21-115-35-190-35s-144 14-190 33c-22 10-39 21-50 29s-10 17-10 21 0 10 10 19 28 21 50 29c46 21 115 35 190 35z m-250-195c8-5 17-11 27-15 61-25 138-40 223-40s163 15 223 40c10 4 19 10 27 15v-55c0-4-2-10-10-20-9-11-27-21-50-30-46-20-113-33-190-33s-144 13-190 33c-22 11-39 21-50 30s-10 16-10 20v55z m0-167c8-4 17-11 27-15 61-25 138-39 223-39s163 14 223 39c10 4 19 11 27 15v-54c0-4-2-11-10-21-9-11-27-21-50-29-46-21-113-34-190-34s-144 13-190 34c-22 10-39 21-50 29s-10 17-10 21v54z m0-167c8-4 17-10 27-14 61-25 138-40 223-40s163 15 223 40c10 4 19 10 27 14v-54c0-4-2-10-10-21-9-10-27-21-50-29-46-21-113-33-190-33s-144 12-190 33c-22 10-39 21-50 29s-10 17-10 21v54z" horiz-adv-x="1000" />

<glyph glyph-name="check" unicode="&#xe81f;" d="M375 176l-174 174-59-59 233-233 500 500-59 59z" horiz-adv-x="1000" />

<glyph glyph-name="unlocked" unicode="&#xe820;" d="M500 142c46 0 83 37 83 83s-37 83-83 83-83-37-83-83 37-83 83-83z m250 375h-42v83c0 115-93 208-208 208s-208-93-208-208h79c0 71 58 129 129 129 71 0 129-58 129-129v-83h-379c-46 0-83-38-83-84v-416c0-46 37-84 83-84h500c46 0 83 38 83 84v416c0 46-37 84-83 84z m0-500h-500v416h500v-416z" horiz-adv-x="1000" />

<glyph glyph-name="up" unicode="&#xe821;" d="M309 208l191 191 191-191 59 59-250 250-250-250z" horiz-adv-x="1000" />

<glyph glyph-name="arrow-up" unicode="&#xe822;" d="M515 683l-232-231 59-58 131 129 0-506 83 0 0 506 129-129 59 60z" horiz-adv-x="1000" />

<glyph glyph-name="view" unicode="&#xe823;" d="M125 475h167v167h-167v-167z m0-208h167v166h-167v-166z m208 0h167v166h-167v-166z m209 0h166v166h-166v-166z m-209 208h167v167h-167v-167z m209 167v-167h166v167h-166z m208-375h167v166h-167v-166z m-625-209h167v167h-167v-167z m208 0h167v167h-167v-167z m209 0h166v167h-166v-167z m208 0h167v167h-167v-167z m0 584v-167h167v167h-167z" horiz-adv-x="1000" />

<glyph glyph-name="view-list" unicode="&#xe824;" d="M167 267h166v166h-166v-166z m0-209h166v167h-166v-167z m0 417h166v167h-166v-167z m208-208h500v166h-500v-166z m0-209h500v167h-500v-167z m0 584v-167h500v167h-500z" horiz-adv-x="1000" />

<glyph glyph-name="accept" unicode="&#xe825;" d="M500 767c-230 0-417-187-417-417 0-230 187-417 417-417 230 0 417 187 417 417 0 230-187 417-417 417z m-83-625l-209 208 59 59 150-149 316 316 59-59-375-375z" horiz-adv-x="1000" />

<glyph glyph-name="resize-window" unicode="&#xe826;" d="M917-67h-167v167h167v-167m0 334h-167v166h167v-166m-334-334h-166v167h166v-167m0 334h-166v166h166v-166m-333-334h-167v167h167v-167m667 667h-167v167h167v-167z" horiz-adv-x="1000" />

<glyph glyph-name="back" unicode="&#xe827;" d="M833 392h-507l233 232-59 59-333-333 333-333 59 59-233 232h507v84z" horiz-adv-x="1000" />

<glyph glyph-name="close" unicode="&#xe828;" d="M792 583l-59 59-233-233-233 233-59-59 233-233-233-233 59-59 233 233 233-233 59 59-233 233z" horiz-adv-x="1000" />

<glyph glyph-name="close-circle" unicode="&#xe829;" d="M500 767c231 0 417-186 417-417s-186-417-417-417-417 186-417 417 186 417 417 417m150-209l-150-150-150 150-58-58 150-150-150-150 58-58 150 150 150-150 58 58-150 150 150 150-58 58z" horiz-adv-x="1000" />

<glyph glyph-name="colwidth" unicode="&#xe82a;" d="M417 100h208v542h-208v-542z m-250 0h208v542h-208v-542z m500 542v-542h208v542h-208z" horiz-adv-x="1000" />

<glyph glyph-name="copy" unicode="&#xe82b;" d="M667 808h-500c-46 0-84-37-84-83v-583h84v583h500v83z m125-166h-459c-46 0-83-38-83-84v-583c0-46 37-83 83-83h459c46 0 83 37 83 83v583c0 46-37 84-83 84z m0-667h-459v583h459v-583z" horiz-adv-x="1000" />

<glyph glyph-name="cut" unicode="&#xe82c;" d="M402 532c9 21 15 44 15 68 0 92-75 167-167 167s-167-75-167-167 75-167 167-167c24 0 48 6 68 15l99-98-99-98c-20 9-44 15-68 15-92 0-167-75-167-167s75-167 167-167 167 75 167 167c0 24-6 48-15 68l98 99 292-292h125v42l-515 515z m-152-15c-46 0-83 37-83 83s37 83 83 83 83-37 83-83-37-83-83-83z m0-500c-46 0-83 37-83 83s37 83 83 83 83-37 83-83-37-83-83-83z m250 312c-11 0-21 10-21 21s10 21 21 21 21-9 21-21-9-21-21-21z m292 396l-250-250 83-83 292 291v42z" horiz-adv-x="1000" />

<glyph glyph-name="dir" unicode="&#xe82d;" d="M417 683h-250c-46 0-83-37-83-83l-1-500c0-46 38-83 84-83h666c46 0 84 37 84 83v417c0 46-38 83-84 83h-333l-83 83z" horiz-adv-x="1000" />

<glyph glyph-name="arrow-down" unicode="&#xe82e;" d="M513 17l231 231-61 58-129-129-2 506-83 0 2-506-129 127-59-60z" horiz-adv-x="1000" />

<glyph glyph-name="edit" unicode="&#xe82f;" d="M125 131v-156h156l461 461-156 156-461-461z m738 426c16 16 16 42 0 58l-98 98c-16 16-42 16-58 0l-77-76 157-157 76 77z" horiz-adv-x="1000" />

<glyph glyph-name="duplicate" unicode="&#xe830;" d="M850 510l-115 115c-2 2-6 4-10 4h-52v6c0 5-2 7-4 11l-115 114c-2 5-6 7-10 7h-356c-23 0-42-19-42-42v-617c0-23 19-41 42-41h139v-92c0-23 19-42 42-42h444c22 0 41 19 41 42v527c0 2-2 6-4 8z m-658 211h329v-92c0-8 8-16 17-16h89l0-498h-435v606z m181-742v92h260c23 0 42 19 42 42v472h29v-91c0-9 9-17 17-17h89l0-498-437 0 0 0z m360 127h-31c-6 0-10-4-10-10v-81c0-7 4-11 10-11h31c30 0 52 23 52 52 3 27-22 50-52 50z m0-79h-18v56h18c17 0 30-12 30-29 0-14-13-27-30-27z" horiz-adv-x="1000" />

<glyph glyph-name="help" unicode="&#xe831;" d="M458 100h84v83h-84v-83m42 667c-229 0-417-188-417-417s188-417 417-417 417 188 417 417-188 417-417 417m0-750c-183 0-333 150-333 333s150 333 333 333 333-150 333-333-150-333-333-333m0 583c-92 0-167-75-167-167h84c0 46 37 84 83 84s83-38 83-84c0-83-125-73-125-208h84c0 94 125 104 125 208 0 92-75 167-167 167z" horiz-adv-x="1000" />

<glyph glyph-name="external-link" unicode="&#xe832;" d="M175 767c-50 0-92-42-92-92v-648c0-52 42-94 92-94h648c50 0 92 42 92 92v279l-92 92v-371h-648v650h371l-92 92h-279z m417 0l123-123-346-348 79-79 348 348 123-123v325h-327z" horiz-adv-x="1000" />

<glyph glyph-name="download" unicode="&#xe833;" d="M844 494h-196v294h-296v-294h-196l344-344 344 344z m-688-442v-98h686v98h-686z" horiz-adv-x="1000" />

<glyph glyph-name="upload" unicode="&#xe834;" d="M352 150h294v294h196l-342 344-344-344h196v-294z m-196-98h686v-98h-686v98z" horiz-adv-x="1000" />

<glyph glyph-name="unfullscreen" unicode="&#xe835;" d="M83 113h180v-180h118v298h-298v-118z m180 475h-180v-119h298v298h-118v-179z m356-655h119v180h179v118h-298v-298z m119 655v179h-119v-298h298v119h-179z" horiz-adv-x="1000" />

<glyph glyph-name="fullscreen" unicode="&#xe836;" d="M202 231h-119v-298h298v119h-179v179z m-119 238h119v179h179v119h-298v-298z m715-417h-179v-119h298v298h-119v-179z m-179 715v-119h179v-179h119v298h-298z" horiz-adv-x="1000" />

<glyph glyph-name="extract" unicode="&#xe837;" d="M896 665l-65 77c-12 14-31 25-54 25h-554c-21 0-42-11-54-25l-65-77c-12-17-21-38-21-59v-579c0-52 42-94 92-94h648c52 0 92 42 92 92v579c2 23-7 44-19 61z m-396-198l254-254h-162v-92h-186v92h-162l256 254z m-319 208l38 46h556l44-46h-638z" horiz-adv-x="1000" />

<glyph glyph-name="archive" unicode="&#xe838;" d="M896 665l-65 77c-12 14-31 25-54 25h-554c-21 0-42-11-54-25l-65-77c-12-17-21-38-21-59v-579c0-52 42-94 92-94h648c52 0 92 42 92 92v579c2 23-7 44-19 61z m-396-569l-254 254h162v92h186v-92h162l-256-254z m-319 579l38 46h556l44-46h-638z" horiz-adv-x="1000" />

<glyph glyph-name="caret-down" unicode="&#xe839;" d="M902 569c-10 10-23 14-37 14h-730c-14 0-27-4-37-14-10-11-15-23-15-38 0-14 5-27 15-37l365-365c10-10 22-14 37-14s27 4 38 14l364 367c11 10 15 23 15 37 0 13-4 25-15 36z" horiz-adv-x="1000" />

<glyph glyph-name="caret-right" unicode="&#xe83a;" d="M719 388l-365 364c-10 11-23 15-35 15s-27-4-38-15c-10-10-14-23-14-37v-730c0-14 4-27 14-37 11-11 23-15 38-15 14 0 27 4 37 15l365 365c10 10 14 22 14 37 0 15-6 27-16 38z" horiz-adv-x="1000" />

<glyph glyph-name="caret-left" unicode="&#xe83b;" d="M281 388l365 364c10 11 23 15 35 15 15 0 27-4 38-15s14-23 14-37v-730c0-14-4-27-14-37-11-11-23-15-38-15-14 0-27 4-37 15l-363 365c-10 10-14 22-14 37 0 15 4 27 14 38z" horiz-adv-x="1000" />

<glyph glyph-name="menu-resize" unicode="&#xe83c;" d="M627 767c0-277 0-554 0-834-31 0-62 0-94 0 0 277 0 557 0 834 32 0 63 0 94 0z m-160 0c0-277 0-554 0-834-32 0-63 0-94 0 0 277 0 555 0 834 31 0 62 0 94 0z" horiz-adv-x="1000" />

<glyph glyph-name="warning" unicode="&#xe83d;" d="M500 767c-230 0-417-187-417-417s187-417 417-417 417 187 417 417-187 417-417 417z m42-625h-84v83h84v-83z m0 166h-84v250h84v-250z" horiz-adv-x="1000" />

<glyph glyph-name="help-bg" unicode="&#xe83e;" d="M500 767c-230 0-417-187-417-417s187-417 417-417 417 187 417 417-187 417-417 417z m42-709h-84v84h84v-84z m86 323l-38-38c-30-30-48-55-48-118h-84v21c0 46 19 88 49 118l52 52c15 15 24 36 24 59 0 46-37 83-83 83s-83-37-83-83h-84c0 92 75 167 167 167s167-75 167-167c0-37-15-70-39-94z" horiz-adv-x="1000" />

<glyph glyph-name="move" unicode="&#xe83f;" d="M417 475h166v125h125l-208 208-208-208h125v-125z m-42-42h-125v125l-208-208 208-208v125h125v166z m583-83l-208 208v-125h-125v-166h125v-125l208 208z m-375-125h-166v-125h-125l208-208 208 208h-125v125z" horiz-adv-x="1000" />

<glyph glyph-name="save" unicode="&#xe840;" d="M708 725h-500c-46 0-83-37-83-83v-584c0-46 37-83 83-83h584c46 0 83 37 83 83v500l-167 167z m-208-667c-69 0-125 56-125 125s56 125 125 125 125-56 125-125-56-125-125-125z m125 417h-417v167h417v-167z" horiz-adv-x="1000" />

<glyph glyph-name="info-bg" unicode="&#xe841;" d="M500 767c-230 0-417-187-417-417s187-417 417-417 417 187 417 417-187 417-417 417z m42-625h-84v250h84v-250z m0 333h-84v83h84v-83z" horiz-adv-x="1000" />

<glyph glyph-name="dropbox" unicode="&#xe842;" d="M665 123l-165 125-160-125-94 56 0-60 254-169 256 167 0 60z m252 471l-246 156-171-140 256-150z m-834-269l252-150 165 127-242 154z m252 425l-252-162 175-132 242 154z m165-448l167-127 250 150-161 135z" horiz-adv-x="1000" />

<glyph glyph-name="googledrive" unicode="&#xe843;" d="M898 254l-267 463h-262l0 0 266-463h263z m-488-39l-131-232h506l132 232-507 0 0 0z m-77 443l-250-443 132-232 254 444-136 231z" horiz-adv-x="1000" />

<glyph glyph-name="onedrive" unicode="&#xe844;" d="M544 581c-75 0-142-43-173-106-19 10-42 17-65 17-75 0-133-61-133-134 0-6 2-10 2-16-52-7-92-50-92-104 0-59 46-105 105-105h83c-4 15-8 30-8 44 0 58 37 108 89 127 11 88 88 156 177 156 54 0 104-22 138-64 12 4 27 6 41 6 11 0 19 0 30-2-7 102-90 181-194 181z m-15-148c-81 0-148-66-148-148 0 0 0-2 0-2-50-6-89-50-89-102 0-58 46-104 104-104h431c50 0 90 40 90 90s-40 89-90 89c0 67-54 119-119 119-18 0-35-4-52-12-27 41-73 70-127 70z" horiz-adv-x="1000" />

<glyph glyph-name="box" unicode="&#xe845;" d="M498 44c-58 0-117 0-175 0-104 0-194 64-227 162-31 92 2 198 83 257 25 18 59 27 88 41 8 4 18 13 21 21 41 123 202 173 306 94 31-23 54-54 66-90 5-12 11-16 25-19 100-6 175-52 213-145 37-92 19-177-46-248-44-48-102-71-169-73-62-2-125 0-185 0z m125 264c-2 2-6 7-8 9-57 52-132 48-182-11-2-2-4-6-8-8-19 29-44 46-75 54-31 6-62 2-94-17 0 32 0 57 0 84 0 21-10 33-27 33-14 0-27-12-27-33 0-65 0-127 0-192 0-67 71-123 138-110 35 6 62 25 85 54 81-69 140-73 198-11-8-16-8-31 8-41 17-11 29 0 38 12 14 19 27 38 44 59 16-21 31-42 45-61 11-14 25-19 40-8 12 8 15 23 4 39-14 21-29 42-46 61-8 10-8 17 0 27 15 19 29 40 44 58 10 15 13 27-2 40-13 10-27 8-40-6-4-5-8-11-12-17-11-15-23-29-36-44-16 21-31 40-45 59-11 12-23 20-40 10-12-8-12-23-2-40z m-96-137c-37 0-67 27-67 64 0 36 30 65 67 65 36 0 67-31 67-67 0-35-29-62-67-62z m-204 0c-38 0-65 27-65 64 0 36 30 65 67 65 38 0 65-29 65-67-2-35-30-62-67-62z m310 125c13-17 25-33 36-50 4-4 6-15 2-19-15-21-29-39-46-58 23 33 27 71 13 108 0 6-3 13-5 19z" horiz-adv-x="1000" />

<glyph glyph-name="before" unicode="&#xe846;" d="M642 541l-59 59-250-250 250-250 59 59-191 191z" horiz-adv-x="1000" />

<glyph glyph-name="next" unicode="&#xe847;" d="M417 600l-59-59 191-191-191-191 59-59 250 250z" horiz-adv-x="1000" />

<glyph glyph-name="resize-image" unicode="&#xe848;" d="M500 767l171-171-417-417-171 171v-417h417l-171 171 417 417 171-171v417h-417z" horiz-adv-x="1000" />

<glyph glyph-name="resize-back" unicode="&#xe849;" d="M858 767l-177-177-118 118-59-354 354 59-118 118 177 177-59 59z m-362-421l-354-58 118-119-177-177 59-59 177 177 119-118 58 354z" horiz-adv-x="1000" />

<glyph glyph-name="warning-shield" unicode="&#xe84a;" d="M500 767l-342-152v-227c0-211 146-407 342-455 196 48 342 244 342 455v227l-342 152z m38-257v-227h-75v227h75z m-38-385c-27 0-50 23-50 50 0 27 23 50 50 50 0 0 0 0 0 0 27 0 50-23 50-50l0 0c0-27-23-50-50-50" horiz-adv-x="1000" />

<glyph glyph-name="warning-alert" unicode="&#xe84b;" d="M538 267h-75v152h75m0-304h-75v75h75m-455-190h834l-417 721-417-721z" horiz-adv-x="1000" />

<glyph glyph-name="perms" unicode="&#xe84c;" d="M750 517h-42v83c0 115-93 208-208 208s-208-93-208-208v-83h-42c-46 0-83-38-83-84v-416c0-46 37-84 83-84h500c46 0 83 38 83 84v416c0 46-37 84-83 84z m-250-375c-46 0-83 37-83 83s37 83 83 83 83-37 83-83-37-83-83-83z m129 375h-258v83c0 71 58 129 129 129 71 0 129-58 129-129v-83z" horiz-adv-x="1000" />

<glyph glyph-name="reload" unicode="&#xe84d;" d="M788 350h143l-214-215-213 215h196c2 67-23 133-75 183-100 100-265 100-367 0s-100-264 0-366c80-79 198-96 294-50l63-63c-130-79-302-62-417 52-135 136-133 352 0 488 135 135 352 135 487 0 69-67 103-156 103-244z" horiz-adv-x="1000" />
</font>
</defs>
</svg>
